<?xml version="1.0" encoding="utf-8"?>
<!-- Generator: Adobe Illustrator 18.1.0, SVG Export Plug-In . SVG Version: 6.00 Build 0)  -->
<svg version="1.1"
	 id="svg5521" sodipodi:docname="sprite.svg" inkscape:export-xdpi="180" inkscape:export-filename="../img/sprite@2x.png" inkscape:export-ydpi="180" inkscape:version="0.48.2 r9819" xmlns:dc="http://purl.org/dc/elements/1.1/" xmlns:cc="http://creativecommons.org/ns#" xmlns:rdf="http://www.w3.org/1999/02/22-rdf-syntax-ns#" xmlns:svg="http://www.w3.org/2000/svg" xmlns:inkscape="http://www.inkscape.org/namespaces/inkscape" xmlns:sodipodi="http://sodipodi.sourceforge.net/DTD/sodipodi-0.dtd"
	 xmlns="http://www.w3.org/2000/svg" xmlns:xlink="http://www.w3.org/1999/xlink" x="0px" y="0px" viewBox="-279 531 640 140"
	 enable-background="new -279 531 640 140" xml:space="preserve">
<sodipodi:namedview  inkscape:guide-bbox="true" inkscape:window-maximized="1" inkscape:window-y="0" inkscape:window-x="0" inkscape:window-height="752" inkscape:current-layer="layer1" inkscape:window-width="1280" inkscape:pageshadow="2" inkscape:pageopacity="0.0" inkscape:document-units="px" showguides="true" showgrid="false" inkscape:cy="355.86707" inkscape:cx="18.626804" inkscape:zoom="1" borderopacity="1.0" bordercolor="#666666" pagecolor="#ffffff" id="base">
	
		<inkscape:grid  color="#000000" type="xygrid" snapvisiblegridlinesonly="true" empopacity="0.1254902" empcolor="#000000" opacity="0.0627451" enabled="true" visible="true" empspacing="5" id="grid5529">
		</inkscape:grid>
</sodipodi:namedview>
<g id="layer2" inkscape:groupmode="layer" inkscape:label="underlay" display="none">
	<rect id="rect38875" x="-279" y="531" display="inline" fill="#E6E6E6" width="640" height="140"/>
</g>
<path id="path11993" sodipodi:ry="7.5" sodipodi:rx="35" sodipodi:cy="122.5" sodipodi:cx="435" sodipodi:type="arc" opacity="0.2" enable-background="new    " d="
	M191,651c0,8.3-15.7,15-35,15s-35-6.7-35-15s15.7-15,35-15S191,642.7,191,651z"/>
<rect id="rect11991" x="106" y="531" fill="none" width="100" height="140"/>
<path id="path5531" sodipodi:nodetypes="ccccccccccccccc" inkscape:connector-curvature="0" inkscape:export-xdpi="90" inkscape:export-filename="/Users/tristen/dev/github/toronto/img/logo.png" inkscape:export-ydpi="90" fill="#2BABE2" d="
	M-37,471l80-40l60,30l60-50l60,50l60-40l80,50l-10-180l-70-60l-60,60l-60-60l-60,60l-60-60l-70,60L-37,471z"/>
<path id="path6062" sodipodi:nodetypes="ccccc" inkscape:connector-curvature="0" inkscape:export-xdpi="90" inkscape:export-filename="/Users/tristen/dev/github/toronto/img/logo.png" inkscape:export-ydpi="90" opacity="0.1" enable-background="new    " d="
	M283,421V231l70,60l10,180L283,421z"/>
<path id="path6064" sodipodi:nodetypes="ccccc" inkscape:connector-curvature="0" inkscape:export-xdpi="90" inkscape:export-filename="/Users/tristen/dev/github/toronto/img/logo.png" inkscape:export-ydpi="90" opacity="0.1" enable-background="new    " d="
	M163,411V231l60,60v170L163,411z"/>
<path id="path6066" sodipodi:nodetypes="ccccc" inkscape:connector-curvature="0" inkscape:export-xdpi="90" inkscape:export-filename="/Users/tristen/dev/github/toronto/img/logo.png" inkscape:export-ydpi="90" opacity="0.1" enable-background="new    " d="
	M43,431V231l60,60v170L43,431z"/>
<g id="Layer_2" transform="matrix(4.52788,0,0,4.52788,422.94188,157.43141)">
</g>
<rect id="rect6713" x="-339" y="631" fill="#2BABE2" width="40" height="40"/>
<rect id="rect6715" x="-339" y="671" fill="#009347" width="40" height="40"/>
<rect id="rect6717" x="-339" y="711" fill="#652E8E" width="40" height="40"/>
<rect id="rect6713-3" x="-339" y="511" fill="#EC2127" width="40" height="40"/>
<rect id="rect6715-2" x="-339" y="551" fill="#F79420" width="40" height="40"/>
<rect id="rect6717-1" x="-339" y="591" fill="#FCEE1E" width="40" height="40"/>
<path id="path6681" sodipodi:nodetypes="cccccccc" inkscape:connector-curvature="0" inkscape:export-xdpi="90" inkscape:export-filename="/Users/tristen/dev/github/toronto/img/logo.png" inkscape:export-ydpi="90" fill="#009347" d="
	M283.5,329.5c-14.1,7-31.1,40.2-42.9,26.1c-5.3-10.1-4.7-22.7-1.5-33.4c5.4-10,7-21.5,12.6-31.3c6.7-9.6,15.8,2.7,24.2,1.6
	c11.2-2.1,13.2,11.7,20.3,17c8.9,6.6,8.6,22.3-5.4,20.1C288.4,330,285.8,330.4,283.5,329.5L283.5,329.5z"/>
<path id="path6690" sodipodi:nodetypes="ccccc" inkscape:connector-curvature="0" inkscape:export-xdpi="90" inkscape:export-filename="/Users/tristen/dev/github/toronto/img/logo.png" inkscape:export-ydpi="90" opacity="0.2" enable-background="new    " d="
	M283,330l0.1-36.2c5.4,3.4,7.8,11.9,13,15.8c8.9,6.6,8.6,22.3-5.4,20.1C288.4,330,285.3,330.9,283,330L283,330z"/>
<path id="path6743" sodipodi:nodetypes="cccczccccc" inkscape:connector-curvature="0" inkscape:export-xdpi="90" inkscape:export-filename="/Users/tristen/dev/github/toronto/img/logo.png" inkscape:export-ydpi="90" fill="#009347" d="
	M60.8,386.1c4.3,4.2,6.9,11,13.4,12.3c6.5-0.8,5.2-8.9,5-13.6c-2.6-25.3,0.9-44.8,9.2-66.3c1.5-6.6,4.6-10.5-3.7-19.5
	S63,286,43.5,283.2C28,286,12.5,307.8,9.9,327.1c-0.1,6,4.4,10.3,8.5,14C21.3,347.7,28,386,43,381C47.4,372.6,59.4,382.6,60.8,386.1
	L60.8,386.1z"/>
<path id="path6756" sodipodi:nodetypes="cccczccc" inkscape:connector-curvature="0" inkscape:export-xdpi="90" inkscape:export-filename="/Users/tristen/dev/github/toronto/img/logo.png" inkscape:export-ydpi="90" opacity="0.2" enable-background="new    " d="
	M60.8,386.1c4.3,4.2,6.9,11,13.4,12.3c6.5-0.8,5.2-8.9,5-13.6c-2.6-25.3,0.9-44.8,9.2-66.3c1.5-6.6,4.6-10.5-3.7-19.5
	S63,286,43.5,283.2L43,381C47.4,372.6,59.4,382.6,60.8,386.1L60.8,386.1z"/>
<path id="path6776" sodipodi:nodetypes="zscccccsccz" inkscape:connector-curvature="0" inkscape:export-xdpi="90" inkscape:export-filename="/Users/tristen/dev/github/toronto/img/logo.png" inkscape:export-ydpi="90" fill="#009347" d="
	M147.8,385c6.4,0.4,11.1,0.6,15.2,1c4.7,0.5,8.6,1.1,13.9,1.2c8.2,2,15.5,8.5,24.4,7.3c10.1-4.1,7.6-24.4,3.3-28.7
	c-4.8-4.6-6.1-11.6-11.1-16.1c-4.6-4.9-9.8-10-11.1-16.9c-3.1-7.2-12.7-10-19.5-6.7c-1.4,0.7-13.8-6.4-14.9-5.2
	c-8.5,7.2-14.1,20.6-20,30C122.1,365.4,141.4,384.7,147.8,385z"/>
<path id="path6816" sodipodi:nodetypes="cccccccc" inkscape:connector-curvature="0" inkscape:export-xdpi="90" inkscape:export-filename="/Users/tristen/dev/github/toronto/img/logo.png" inkscape:export-ydpi="90" opacity="0.2" enable-background="new    " d="
	M163,386c4.7,0.5,8.6,1.1,13.9,1.2c8.2,2,15.5,8.5,24.4,7.3c10.1-4.1,7.6-24.4,3.3-28.7c-4.8-4.6-6.1-11.6-11.1-16.1
	c-4.6-4.9-9.8-10-11.1-16.9c-3.1-7.2-12.7-10-19.5-6.7L163,386z"/>
<path id="path6823" sodipodi:nodetypes="zcsscz" inkscape:connector-curvature="0" inkscape:export-xdpi="90" inkscape:export-filename="/Users/tristen/dev/github/toronto/img/logo.png" inkscape:export-ydpi="90" fill="#009347" d="
	M103,389c-6,5-20.3,29-2.3,25.8c0.8-0.3,1.5-0.3,2.3-0.8c5.4-3.2,6-11,10-15c4.5-4.5,4.5-8.8,1.8-12.4C110.9,383,109,384,103,389z"
	/>
<path id="path6839" sodipodi:nodetypes="cccc" inkscape:connector-curvature="0" inkscape:export-xdpi="90" inkscape:export-filename="/Users/tristen/dev/github/toronto/img/logo.png" inkscape:export-ydpi="90" opacity="0.2" enable-background="new    " d="
	M103,389c-6,5-20.3,29-2.3,25.8c0.8-0.3,1.5-0.3,2.3-0.8V389z"/>
<path id="path6843" sodipodi:nodetypes="czcc" inkscape:connector-curvature="0" inkscape:export-xdpi="90" inkscape:export-filename="/Users/tristen/dev/github/toronto/img/logo.png" inkscape:export-ydpi="90" fill="#007639" d="
	M351,416c-5-15-27.2-19.8-26.4-37.6C325.5,360.5,338,361,348,361L351,416z"/>
<path id="path6864" sodipodi:nodetypes="ccccccccccccccc" inkscape:connector-curvature="0" inkscape:export-xdpi="90" inkscape:export-filename="/Users/tristen/dev/github/toronto/img/logo.png" inkscape:export-ydpi="90" fill="#FCEE1E" d="
	M283.1,371l-0.5,0.1h-0.1h0l-1.5,0.2l-0.1,0h-0.1h-0.2l-0.4-5h0.1l0.2,0l1.3-0.2l0.1,0l1.2-0.1L283.1,371z"/>
<rect id="rect6906" x="-379" y="631" fill="#2BABE2" width="40" height="40"/>
<rect id="rect6908" x="-379" y="671" fill="#009347" width="40" height="40"/>
<rect id="rect6910" x="-379" y="711" fill="#652E8E" width="40" height="40"/>
<rect id="rect6912" x="-379" y="511" fill="#EC2127" width="40" height="40"/>
<rect id="rect6914" x="-379" y="551" fill="#F79420" width="40" height="40"/>
<rect id="rect6916" x="-379" y="591" fill="#FCEE1E" width="40" height="40"/>
<path id="rect6918" opacity="0.1" enable-background="new    " d="M-377,511h36c1.1,0,2,0.9,2,2v236c0,1.1-0.9,2-2,2h-36
	c-1.1,0-2-0.9-2-2V513C-379,511.9-378.1,511-377,511z"/>
<path id="path6818" sodipodi:nodetypes="cccccccccccccccccccccccccccccc" inkscape:connector-curvature="0" inkscape:export-xdpi="90" inkscape:export-filename="/Users/tristen/dev/github/toronto/img/logo.png" inkscape:export-ydpi="90" opacity="0.1" enable-background="new    " d="
	M43,231l-70,60l-10,180l80-40l60,30l60-50l60,50l60-40l80,50l-10-180l-70-60l-60,60l-60-60l-60,60L43,231z M43,246l60,60l60-60
	l60,60l60-60l60,50l10,155l-70-46l-60,41l-60-50l-60,50l-60-30l-70,35l10-155L43,246z"/>
<path id="path7732" sodipodi:nodetypes="zcczz" inkscape:connector-curvature="0" inkscape:export-xdpi="90" inkscape:export-filename="/Users/tristen/dev/github/toronto/img/logo.png" inkscape:export-ydpi="90" fill="#009347" d="
	M-2.2,362.5c-0.9,6.2,2.6,11,7.4,8.2c1.8-5.4,0.3-11.2,2-16.7c0.2-5.4-7.8-4.5-9.5-2.1S-1.3,356.3-2.2,362.5z"/>
<path id="text3496" sodipodi:nodetypes="ccsccccscccscccccccccccccccccccccccccccccccccccccccscccccccccccccccccccccsccccccsccccccccscccccccccscsscsscscscsccccccccscccssccccccccsccsccccccccccccccccccccccccccccccccc" inkscape:connector-curvature="0" inkscape:export-xdpi="90" inkscape:export-filename="/Users/tristen/dev/github/toronto/img/logo.png" inkscape:export-ydpi="90" opacity="0.45" fill="#FFFFFF" enable-background="new    " d="
	M-72.7,551.8c-2.5,0.3-5,1.9-6.5,3.8c-1.5,2-2.2,4.9-1.9,7.3l1.3,9.6c-1.2,0.7-2.3,1.6-3.1,2.6c-0.4,0.5-0.8,1.2-1,1.9
	c-4.7-1.9-9.8-2.7-14.9-2c-7.5,1.1-14.3,5-18.8,11.1c-0.7,0.9-1.2,1.8-1.8,2.7c-0.8-0.7-1.5-1.5-2.3-2.1c-6.1-4.6-13.6-6.5-21.2-5.5
	c-7.5,1.1-14.3,5-18.8,11.1c-0.6,0.9-1.2,1.8-1.7,2.7c-0.3-0.2-0.6-0.5-0.9-0.7c-0.9-0.9-1.7-1.8-2.8-2.6c-5-3.8-11.4-5.5-17.7-4.6
	c-5.1,0.7-9.7,3.1-13.3,6.6c-4.4-2.4-9.5-3.4-14.6-2.7c-3,0.4-5.8,1.4-8.4,2.9c-10.8-1.8-11-18.8-23.1-17.4
	c-2.5,0.3-4.8,1.8-6.3,3.5l0,0c-0.4,0.5-0.7,1.1-1,1.7c-0.2-0.2-0.3-0.4-0.5-0.5l0,0c0,0-0.1-0.1-0.2-0.1c0,0,0-0.1-0.1-0.1l0,0
	c-1.9-1.7-5-2.6-7.4-2.2c-2.5,0.3-4.8,1.8-6.3,3.5l0,0c-1.4,1.6-2.6,4.1-2.7,6.5c0,0,0,0,0,0l-0.4,10.3l-0.6,0.1
	c-2.4,0.3-4.7,1.7-6.2,3.4l0,0c0,0,0,0.1-0.1,0.1c0,0,0,0,0,0c-1.5,1.7-2.6,4.1-2.7,6.5c0,0.1,0,0.1,0,0.2c0,2.4,1,5.2,2.9,7
	c0,0,0.1,0.1,0.1,0.1c0.4,0.4,1,0.8,1.5,1.1c0,0,0,0,0,0c0.3,0.5,0.7,0.9,1.1,1.3c0,0.1,0,0.1,0.1,0.2c-1.4,0.6-2.7,1.6-3.6,2.6h0
	c-1.5,1.7-2.6,4.1-2.7,6.5c0,0.1,0,0.3,0,0.4c0,0.4,0,0.9,0.1,1.4c0.3,1.9,1.4,4,2.8,5.3l0,0c0.1,0.1,0.1,0.1,0.2,0.1
	c0,0,0,0.1,0.1,0.1l0,0c0.5,0.4,1,0.8,1.5,1.1c0.3,0.4,0.6,0.8,0.9,1.1c0,0.1,0,0.1,0.1,0.2c0.5,1.5,1.3,3,2.4,4.1l0,0
	c0,0,0.1,0.1,0.2,0.1c0,0,0.1,0.1,0.1,0.1l0,0c0.1,0.1,0.3,0.2,0.4,0.3l-0.1,3.3l0,0c0.9,6.3,15.2,26.2,22.4,25.3
	c2.4-0.3,4.8-1.7,6.3-3.4c0.4-0.5,0.7-1.1,1-1.7c0.2,0.2,0.3,0.4,0.4,0.5c0.1,0.1,0.2,0.1,0.2,0.2c2,1.7,5.1,2.5,7.5,2.2
	c2.4-0.3,4.8-1.7,6.3-3.4c1.5-1.7,2.6-4.1,2.7-6.6c0,0,0,0,0,0l0.3-7.7c4.7,5.5,8,15.1,16.6,14.1c2.4-0.3,5-1.8,6.4-3.8
	c1.5-1.9,2.3-4.8,1.9-7.3l-1.8-12.9c5.9,6.2,12.7,21.2,21.3,20.1c2.4-0.3,5-1.9,6.4-3.8c1.5-1.9,2.3-4.8,1.9-7.3l-1.8-12.9
	c5.8,6.2,12.7,21.2,21.3,20.1c2.4-0.3,5-1.8,6.4-3.8c1-1.3,1.6-3,1.8-4.7c5.8,3.8,12.7,5.6,19.6,4.6c3.1-0.4,6.1-1.4,8.9-2.8
	c0.1,0.1,0.1,0.1,0.2,0.2c4.1,3.5,7.7,12.5,11.8,15.7c1.9,1.5,4.8,2.3,7.3,1.9c2.4-0.3,4.9-1.8,6.3-3.7l0,0c0,0,0-0.1,0.1-0.1
	c0,0,0.1-0.1,0.1-0.1l0,0c1.4-1.9,2.1-4.8,1.8-7.1l-1.5-10.4c3,0.5,6,0.7,9.1,0.3c7.5-1.1,14.3-5,18.8-11.1c0.6-0.8,1-1.6,1.5-2.4
	c1.9,2.5,4.4,4.6,7.3,5.8c4.1,1.7,8.6,2,13.3,1.4c1.3-0.2,2.6-0.7,3.8-1.4c1.3,0.4,2.7,0.5,4,0.3c2.1-0.3,4.4-1.6,5.9-3.2
	c1.9,1.1,4.4,1.8,6.6,1.5c2.4-0.3,5-1.8,6.4-3.8c1.5-1.9,2.3-4.8,1.9-7.3l-1.8-12.9c6,6.3,12.4,21.2,21.3,20.1
	c2.4-0.3,5-1.8,6.4-3.8c1.5-1.9,2.3-4.8,1.9-7.3l-1.8-12.9c6,6.3,12.4,21.2,21.3,20.1c2.4-0.3,5-1.8,6.4-3.8c1-1.3,1.6-3,1.8-4.7
	c5.8,3.8,12.7,5.6,19.7,4.6c6.8-1,13-4.3,17.5-9.4c0.1-0.2,0.3-0.3,0.4-0.5c0,0,0.1-0.1,0.1-0.1c0.8,1.5,1.9,2.8,3.1,3.7
	c2.3,1.7,5.6,2.6,8.4,2.2c2.8-0.4,5.8-2.1,7.5-4.4s2.6-5.6,2.2-8.4c-0.3-2.3-1.5-4.7-3.2-6.4c0-0.1-0.1-0.2-0.1-0.3
	c0.4-1.3,0.5-2.6,0.3-3.9L96,555.4c-2.2-6.3-13.5-25.2-22.9-24.1c-2.5,0.3-5,1.9-6.5,3.8c-1.5,2-2.2,4.9-1.9,7.3l2.4,16.9
	c-6.1-4.5-13.5-6.4-20.9-5.3c-7.5,1.1-14.2,5-18.8,11.1c-0.7,0.9-1.2,1.8-1.7,2.7c-0.3-0.2-0.5-0.5-0.8-0.7
	c-0.9-0.9-1.8-1.9-2.9-2.7c-5-3.8-11.4-5.4-17.7-4.6c-5,0.7-9.7,3.1-13.3,6.6c-4.4-2.4-9.5-3.4-14.6-2.7c-3,0.4-5.8,1.4-8.4,2.9
	c-1.4-0.6-3-1-4.5-0.9c-0.3-0.4-0.6-0.7-1-1.1c-0.6-2.1-2-4.2-3.7-5.5l0,0c0,0-0.1-0.1-0.2-0.1c0,0,0,0,0,0
	c-0.1-0.1-0.3-0.2-0.4-0.3c-0.6-0.8-1.4-1.6-2.2-2.2l0,0c0,0-0.1-0.1-0.2-0.1c0,0,0,0,0,0c-2.1-1.6-5.1-2.4-7.7-2
	c-2.7,0.4-5.4,2-7,4.1c-0.4,0.5-0.7,1.1-1,1.6c-0.7-1.5-1.7-2.8-2.9-3.7l0,0c0,0-0.1,0-0.2-0.1c0,0,0-0.1-0.1-0.1l0,0
	c-0.2-0.1-0.4-0.2-0.6-0.4c-0.6-0.8-1.2-1.5-1.9-2.1l0,0c-0.1,0-0.1-0.1-0.2-0.1c0,0,0,0,0,0C-67.4,552.3-70.3,551.5-72.7,551.8
	L-72.7,551.8z"/>
<g id="g3194" transform="matrix(2.9972307,-0.42123335,0.42123335,2.9972307,139.61066,848.96632)" inkscape:export-xdpi="90" inkscape:export-filename="/Users/tristen/dev/github/toronto/img/logo.png" inkscape:export-ydpi="90">
	
		<text transform="matrix(0.3304 0 0 0.3304 -59.6603 -84.0589)" fill="#EC2127" font-family="'Comfortaa-Regular'" font-size="80.0065" letter-spacing="-6">t</text>
	<text transform="matrix(0.3304 0 0 0.3304 -51.3349 -84.0589)" font-family="'ArialMT'" font-size="36.3202"> </text>
	
		<text transform="matrix(0.3304 0 0 0.3304 -51.8986 -84.059)" fill="#EC2127" font-family="'Comfortaa-Regular'" font-size="80.0065" letter-spacing="-2">ime!</text>
	
		<text transform="matrix(0.3304 0 0 0.3304 -58.8759 -83.0873)" fill="#F79420" font-family="'Comfortaa-Regular'" font-size="80.0065" letter-spacing="-6">t</text>
	<text transform="matrix(0.3304 0 0 0.3304 -50.5505 -83.0877)" font-family="'ArialMT'" font-size="36.3202"> </text>
	
		<text transform="matrix(0.3304 0 0 0.3304 -51.1142 -83.0878)" fill="#F79420" font-family="'Comfortaa-Regular'" font-size="80.0065" letter-spacing="-2">ime!</text>
	
		<text transform="matrix(0.3304 0 0 0.3304 -58.287 -81.6171)" fill="#FCEE1E" font-family="'Comfortaa-Regular'" font-size="80.0065" letter-spacing="-6">t</text>
	<text transform="matrix(0.3304 0 0 0.3304 -49.9616 -81.6169)" font-family="'ArialMT'" font-size="36.3202"> </text>
	
		<text transform="matrix(0.3304 0 0 0.3304 -50.5253 -81.6171)" fill="#FCEE1E" font-family="'Comfortaa-Regular'" font-size="80.0065" letter-spacing="-2">ime!</text>
	
		<text transform="matrix(0.3304 0 0 0.3304 -57.6993 -80.7349)" fill="#009347" font-family="'Comfortaa-Regular'" font-size="80.0065" letter-spacing="-6">t</text>
	<text transform="matrix(0.3304 0 0 0.3304 -49.3741 -80.7347)" font-family="'ArialMT'" font-size="36.3202"> </text>
	
		<text transform="matrix(0.3304 0 0 0.3304 -49.9376 -80.7349)" fill="#009347" font-family="'Comfortaa-Regular'" font-size="80.0065" letter-spacing="-2">ime!</text>
	
		<text transform="matrix(0.3304 0 0 0.3304 -57.1114 -79.5579)" fill="#2BABE2" font-family="'Comfortaa-Regular'" font-size="80.0065" letter-spacing="-6">t</text>
	<text transform="matrix(0.3304 0 0 0.3304 -48.7862 -79.5579)" font-family="'ArialMT'" font-size="36.3202"> </text>
	
		<text transform="matrix(0.3304 0 0 0.3304 -49.3497 -79.5579)" fill="#2BABE2" font-family="'Comfortaa-Regular'" font-size="80.0065" letter-spacing="-2">ime!</text>
	
		<text transform="matrix(0.3304 0 0 0.3304 -56.5224 -78.3806)" fill="#652E8E" font-family="'Comfortaa-Regular'" font-size="80.0065" letter-spacing="-6">t</text>
	<text transform="matrix(0.3304 0 0 0.3304 -48.197 -78.3806)" font-family="'ArialMT'" font-size="36.3202"> </text>
	
		<text transform="matrix(0.3304 0 0 0.3304 -48.7607 -78.3806)" fill="#652E8E" font-family="'Comfortaa-Regular'" font-size="80.0065" letter-spacing="-2">ime!</text>
</g>
<g id="g3232" transform="matrix(2.9972307,-0.42123335,0.42123335,2.9972307,-5.6319097,949.03178)" inkscape:export-xdpi="90" inkscape:export-filename="/Users/tristen/dev/github/toronto/img/logo.png" inkscape:export-ydpi="90">
	
		<text transform="matrix(0.3304 0 0 0.3304 -73.1919 -109.9429)" fill="#EC2127" font-family="'Comfortaa-Regular'" font-size="80.0065" letter-spacing="-2">#ma</text>
	<text transform="matrix(0.3304 0 0 0.3304 -20.433 -109.9432)" font-family="'ArialMT'" font-size="36.3202"> </text>
	
		<text transform="matrix(0.3304 0 0 0.3304 -21.2397 -109.9432)" fill="#EC2127" font-family="'Comfortaa-Regular'" font-size="80.0065" letter-spacing="-6">p</text>
	
		<text transform="matrix(0.3304 0 0 0.3304 -72.4067 -108.9712)" fill="#F79420" font-family="'Comfortaa-Regular'" font-size="80.0065" letter-spacing="-2">#ma</text>
	<text transform="matrix(0.3304 0 0 0.3304 -19.6481 -108.9713)" font-family="'ArialMT'" font-size="36.3202"> </text>
	
		<text transform="matrix(0.3304 0 0 0.3304 -20.454 -108.9712)" fill="#F79420" font-family="'Comfortaa-Regular'" font-size="80.0065" letter-spacing="-6">p</text>
	
		<text transform="matrix(0.3304 0 0 0.3304 -71.8175 -107.5005)" fill="#FCEE1E" font-family="'Comfortaa-Regular'" font-size="80.0065" letter-spacing="-2">#ma</text>
	<text transform="matrix(0.3304 0 0 0.3304 -19.0592 -107.5005)" font-family="'ArialMT'" font-size="36.3202"> </text>
	
		<text transform="matrix(0.3304 0 0 0.3304 -19.8659 -107.5005)" fill="#FCEE1E" font-family="'Comfortaa-Regular'" font-size="80.0065" letter-spacing="-6">p</text>
	
		<text transform="matrix(0.3304 0 0 0.3304 -71.2297 -106.6197)" fill="#009347" font-family="'Comfortaa-Regular'" font-size="80.0065" letter-spacing="-2">#ma</text>
	<text transform="matrix(0.3304 0 0 0.3304 -18.4714 -106.6197)" font-family="'ArialMT'" font-size="36.3202"> </text>
	
		<text transform="matrix(0.3304 0 0 0.3304 -19.2781 -106.6197)" fill="#009347" font-family="'Comfortaa-Regular'" font-size="80.0065" letter-spacing="-6">p</text>
	
		<text transform="matrix(0.3304 0 0 0.3304 -70.6419 -105.442)" fill="#2BABE2" font-family="'Comfortaa-Regular'" font-size="80.0065" letter-spacing="-2">#ma</text>
	<text transform="matrix(0.3304 0 0 0.3304 -17.8836 -105.4421)" font-family="'ArialMT'" font-size="36.3202"> </text>
	
		<text transform="matrix(0.3304 0 0 0.3304 -18.6896 -105.442)" fill="#2BABE2" font-family="'Comfortaa-Regular'" font-size="80.0065" letter-spacing="-6">p</text>
	
		<text transform="matrix(0.3304 0 0 0.3304 -70.0552 -104.2649)" fill="#652E8E" font-family="'Comfortaa-Regular'" font-size="80.0065" letter-spacing="-2">#ma</text>
	<text transform="matrix(0.3304 0 0 0.3304 -17.2963 -104.2648)" font-family="'ArialMT'" font-size="36.3202"> </text>
	
		<text transform="matrix(0.3304 0 0 0.3304 -18.103 -104.2651)" fill="#652E8E" font-family="'Comfortaa-Regular'" font-size="80.0065" letter-spacing="-6">p</text>
</g>
<path id="path6694-6" inkscape:connector-curvature="0" inkscape:export-xdpi="90" inkscape:export-filename="/Users/tristen/dev/github/toronto/img/logo.png" inkscape:export-ydpi="90" fill="#FCEE1E" d="
	M337,299c-1,0-4,1-4,1l-2.5,2.2l2.5,3.8c0,0,2-1,4-1V299z M341,299v6h3l-1-6H341z M326.5,305.6l-0.7,0.7l0,0l0,0.1l-1.3,1.3l0,0.1
	l0,0l-1.2,1.4l-0.1,0.1l0,0l-0.2,0.2l3.9,3.1l0.1-0.1l0.1-0.1l1.1-1.2l0.1-0.1l1.2-1.3l0.6-0.6L326.5,305.6L326.5,305.6z
	 M319.8,313.7l-0.2,0.3l-0.1,0.1l0,0.1l-0.9,1.6l0,0.1l0,0.1l-0.8,1.6l0,0.1l0,0.1l-0.4,0.9l4.6,1.9l0.3-0.8l0.1-0.2l0.7-1.4
	l0.1-0.1l0.8-1.3l0.1-0.1l0.1-0.2L319.8,313.7L319.8,313.7z M315.7,323.8l-0.2,1.3l0,0.1v0.1l-0.2,1.8l0,0.1v0.1l-0.1,1.8l5,0.2
	l0.1-1.7l0.2-1.7l0-0.2l0.2-1.1L315.7,323.8L315.7,323.8z M217.4,331.5l-1.1,0h-0.1h-0.1l-1.2,0.1l-0.1,0h-0.1l-1.1,0.2h-0.1l-0.1,0
	l-1,0.3l-0.1,0l-0.1,0l-0.4,0.2l1.8,4.7l0.2-0.1l0.2-0.1h0l0.8-0.2l0.7-0.1l0.2,0l1.1-0.1l0.9,0L217.4,331.5L217.4,331.5z
	 M223.7,333.3c-2.2,0.3-3.3,5-0.1,5.4l0.2,0.1l1.3,0.9l0.1,0.1l1.3-1.9l0.1-0.2l1.5-2h0l0,0l-0.1-0.1l-1.5-1l-0.1-0.1l-0.1,0
	l-1.5-0.9l-0.1,0l-0.1-0.1C224.3,333.3,224,333.2,223.7,333.3L223.7,333.3z M315,333.9l0,1.7l-0.2,1.6l0,0.1v0.1l-0.2,1.1l4.9,0.9
	l0.2-1.3l0-0.1v-0.1l0.2-1.8V336l0-0.1l0-1.8L315,333.9L315,333.9z M206.6,335.9L206.6,335.9l-0.1,0.2l-0.5,0.7l-0.1,0.1l-0.1,0.1
	l-0.5,0.7l-0.1,0.1l-0.1,0.1l-0.8,1.5l-0.1,0.1l0,0.1l-0.7,1.4l4.6,2.1l0.5-1.2l0.1-0.2l0.7-1.2l0.1-0.2l0.2-0.4l0.1-0.2l0.3-0.4
	l0.1-0.2l-1.8-1.4l-0.2-0.2L206.6,335.9L206.6,335.9z M232.1,338.9l-3.3,3.8l0.8,0.7l0.1,0l1.5,1.4l0.1,0.1l1.1,1.1l3.5-3.6
	l-1.2-1.1h0l0,0l-1.6-1.5l0,0v0L232.1,338.9L232.1,338.9z M156,341l-8.3,5l9,6l-9,9l5,5l10-10l10,10l5-5l-9-9l9-6l-6.7-4l-8.3,7
	L156,341z M313.3,342.8l-0.4,0.9l-0.7,1.4l-0.1,0.1l-0.8,1.3l-0.1,0.1l-0.1,0.2l4.2,2.7l0.2-0.3l0-0.1l0-0.1l0.9-1.6l0-0.1l0.1-0.1
	l0.8-1.6l0-0.1l0-0.1l0.4-0.9L313.3,342.8L313.3,342.8z M201.8,345.5l-0.2,0.5l-0.1,0.2l-0.7,1.3l-0.1,0.2l-0.3,0.5l-0.1,0.1
	l-0.3,0.5l-0.1,0.1l0,0l-0.3,0.4l4,3l0.4-0.6l0.1-0.1l0-0.1l0.5-0.8l0.1,0l0-0.1l0.4-0.8l0.1-0.1l0-0.1l0.8-1.6l0-0.1l0-0.1l0.2-0.6
	L201.8,345.5L201.8,345.5z M239.4,345.9l-3.5,3.5l2.1,2.1l1.5,1.4l3.5-3.6l-1.4-1.4L239.4,345.9z M308.4,350.7l-0.1,0.1l-0.1,0.1
	l-1.1,1.2l-0.1,0.1l-1.2,1.3l-0.6,0.6l3.4,3.7l0.7-0.7l0,0l0,0l1.3-1.4l0.1,0l0-0.1l1.2-1.4l0-0.1l0,0l0.2-0.2L308.4,350.7
	L308.4,350.7z M196.7,351.7l-0.2,0.1l-1.4,0.6h0l-0.2,0.1l-1.3,0.5l-0.1,0l-0.1,0l-0.8,0.2l1.2,4.9l1.1-0.3l0.1,0l0.1,0l1.8-0.6
	l0.1-0.1l0.1,0l1.8-0.8l0.1-0.1l0.1,0l-1.2-2.2L196.7,351.7L196.7,351.7z M246.5,352.8l-3.4,3.7l2.3,2.1l0,0l0,0l1.4,1.2l3.2-3.8
	l-1.3-1.2l-0.1,0L246.5,352.8L246.5,352.8z M183.9,352.9l-1.4,4.8l0.9,0.3l0.1,0h0.1l1.1,0.2l0.1,0l0.1,0l1.2,0.2h0.1l0.1,0l1.3,0.1
	h0.1h0.1h0.3l0.1-5H188l-1.2-0.1l-0.2,0l-0.9-0.1l-0.1,0h-0.1l-0.9-0.2v0L183.9,352.9L183.9,352.9z M301.7,357.1l-1.3,1l-0.1,0.1
	l-1.4,1l-0.1,0l0,0l-1.1,0.7l2.7,4.2l1.2-0.8h0l0.1,0l1.6-1.1l0,0l0.1,0l1.4-1L301.7,357.1L301.7,357.1z M254,359.2l-3,4l0.6,0.5
	l0.1,0h0l2,1.5l0.1,0l0,0l1.5,0.9l2.7-4.2l-1.4-0.9l-0.1-0.1l-1.9-1.3l-0.1-0.1L254,359.2L254,359.2z M293.6,362.1l-0.9,0.5l-0.1,0
	l-1.5,0.7l-0.1,0l-1.5,0.6v0l-0.1,0.1l-0.1,0l1.7,4.7l0.2-0.1l0,0h0.1l1.7-0.7l0,0h0.1l1.7-0.8l0,0l0.1,0l1-0.5L293.6,362.1
	L293.6,362.1z M262.1,364.2l-2.2,4.5l0.5,0.2l0.1,0l0.1,0l2.2,0.9l0.1,0l0.1,0l2,0.7l1.6-4.7l-1.8-0.6l-0.2-0.1l-1.9-0.8l-0.2-0.1
	L262.1,364.2L262.1,364.2z M284.8,365.5L284.8,365.5c-0.6,0.1-1.3,0.4-1.8,0.5l0,5l1.2-0.2h0h0.1l1.6-0.4l0.1,0h0.1l-0.7-2.4
	l-0.1-0.3L284.8,365.5L284.8,365.5z M270.7,366.8l-0.4,5l1.2,0.1h0.1h0.1l1.2,0.1h0.1h0.1l1.2,0h0.1h0.1l1.2-0.1h0.1h0.1l0.2,0
	l-0.6-5h-0.1l-1.1,0.1v0l-1.1,0h0h-0.1l-1.1-0.1v0L270.7,366.8L270.7,366.8z"/>
<g id="g8072" transform="translate(-168,-112.00002)" inkscape:export-xdpi="90" inkscape:export-filename="/Users/tristen/dev/github/toronto/img/logo.png" inkscape:export-ydpi="90">
	
		<path id="path8074" inkscape:export-xdpi="90" inkscape:export-filename="/Users/tristen/dev/github/toronto/img/logo.png" inkscape:export-ydpi="90" sodipodi:ry="40" sodipodi:rx="32.5" sodipodi:cy="70" sodipodi:cx="967.5" sodipodi:type="arc" fill="#FFFFFF" d="
		M371,365.9c0,22.4-18.2,40.6-40.6,40.6c-22.4,0-40.6-18.2-40.6-40.6c0-22.4,18.2-40.6,40.6-40.6C352.8,325.3,371,343.5,371,365.9z"
		/>
	
		<path id="path8076" sodipodi:nodetypes="cscsc" inkscape:connector-curvature="0" inkscape:export-xdpi="90" inkscape:export-filename="/Users/tristen/dev/github/toronto/img/logo.png" inkscape:export-ydpi="90" opacity="0.1" enable-background="new    " d="
		M372.2,370.1c0,0-7.1-35.3-42.4-35.3s-42.4,35.3-42.4,35.3c0-35.3,21.2-45.9,42.4-45.9S372.2,334.7,372.2,370.1z"/>
	
		<path id="path8078" sodipodi:nodetypes="scccssssss" inkscape:connector-curvature="0" inkscape:export-xdpi="90" inkscape:export-filename="/Users/tristen/dev/github/toronto/img/logo.png" inkscape:export-ydpi="90" fill="#333333" d="
		M330,311c-51,0-68,51-51,85c0,0,34,51,51,68c17-17,51-68,51-68C398.5,362,381,311,330,311z M330.1,328.3c22,0,39.9,17,39.9,38
		c0,21-17.9,38-39.9,38c-22,0-39.9-17-39.9-38S308.1,328.3,330.1,328.3z"/>
	
		<path id="path8080" sodipodi:nodetypes="cccscccccsscccc" inkscape:connector-curvature="0" inkscape:export-xdpi="90" inkscape:export-filename="/Users/tristen/dev/github/toronto/img/logo.png" inkscape:export-ydpi="90" fill="#333333" d="
		M331.4,338.7l-2.8,2.1v16.6c-4.5,1.2-7.8,5.3-7.8,10.2c0,3.5,1.7,6.5,4.3,8.5l-13.4,12v3.5h3.5l15.7-13.4c0.2,0,0.4,0,0.6,0
		c5.9,0,10.6-4.7,10.6-10.6c0-4.9-3.3-9-7.8-10.2v-16.6L331.4,338.7L331.4,338.7z"/>
</g>
<path id="path7710-5" inkscape:export-xdpi="90" inkscape:export-filename="/Users/tristen/dev/github/toronto/img/logo.png" inkscape:export-ydpi="90" sodipodi:ry="40" sodipodi:rx="32.5" sodipodi:cy="70" sodipodi:cx="967.5" sodipodi:type="arc" fill="#FFFFFF" d="
	M185.6,584.6c0,16.3-13.2,29.6-29.6,29.6c-16.3,0-29.6-13.2-29.6-29.6S139.7,555,156,555C172.4,555,185.6,568.2,185.6,584.6z"/>
<path id="path7712-3" sodipodi:nodetypes="cscsc" inkscape:connector-curvature="0" inkscape:export-xdpi="90" inkscape:export-filename="/Users/tristen/dev/github/toronto/img/logo.png" inkscape:export-ydpi="90" opacity="0.1" enable-background="new    " d="
	M186.5,587.6c0,0-5.1-25.7-30.9-25.7s-30.9,25.7-30.9,25.7c0-25.7,15.4-33.4,30.9-33.4S186.5,561.9,186.5,587.6z"/>
<path id="path7714-8" sodipodi:nodetypes="scccssssss" inkscape:connector-curvature="0" inkscape:export-xdpi="90" inkscape:export-filename="/Users/tristen/dev/github/toronto/img/logo.png" inkscape:export-ydpi="90" fill="#404040" d="
	M155.8,544.6c-37.1,0-49.5,37.1-37.1,61.9c0,0,24.8,37.2,37.1,49.5c12.4-12.4,37.1-49.5,37.1-49.5
	C205.6,581.7,192.9,544.6,155.8,544.6z M155.8,557.2c16,0,29.1,12.4,29.1,27.7s-13,27.7-29.1,27.7c-16,0-29.1-12.4-29.1-27.7
	C126.8,569.6,139.8,557.2,155.8,557.2z"/>
<path id="path7716-7" sodipodi:nodetypes="cccscccccssccc" inkscape:connector-curvature="0" inkscape:export-xdpi="90" inkscape:export-filename="/Users/tristen/dev/github/toronto/img/logo.png" inkscape:export-ydpi="90" fill="#404040" d="
	M156.8,566.8l-2.1,1.5v10.1c-3.3,0.9-5.7,3.9-5.7,7.4c0,2.5,1.2,4.8,3.1,6.2l-6.2,9v3h3l7.4-10.4c0.1,0,0.3,0,0.4,0
	c4.3,0,7.7-3.5,7.7-7.7c0-3.5-2.4-6.5-5.7-7.4v-10.1L156.8,566.8z"/>
<rect id="rect8338" x="-161" y="419" inkscape:export-xdpi="90" inkscape:export-filename="/Users/tristen/dev/github/toronto/img/favicon.png" inkscape:export-ydpi="90" fill="none" width="32" height="32">
</rect>
<path id="path8346" sodipodi:nodetypes="scccssssss" inkscape:connector-curvature="0" inkscape:export-xdpi="90" inkscape:export-filename="/Users/tristen/dev/github/toronto/img/favicon.png" inkscape:export-ydpi="90" d="
	M-145,419c-10.7,0-13.6,10.9-10,18c0,0,6.4,10.4,10,14c3.6-3.6,10-14,10-14C-131.4,429.9-134.3,419-145,419z M-145,422.6
	c4.6,0,8.3,3.6,8.3,7.9s-3.7,7.9-8.3,7.9s-8.3-3.6-8.3-7.9S-149.6,422.6-145,422.6z"/>
<path id="path8350" inkscape:connector-curvature="0" inkscape:export-xdpi="90" inkscape:export-filename="/Users/tristen/dev/github/toronto/img/favicon.png" inkscape:export-ydpi="90" d="
	M-145,425l-1,1v3.3c-0.6,0.3-1,1-1,1.7c0,0.6,0.2,1,0.6,1.4l-2.6,2.6v1h1l3-3c1.1,0,2-0.9,2-2c0-0.7-0.4-1.4-1-1.7V426L-145,425z"/>
<g>
	<defs>
		<path id="SVGID_1_" d="M-300,425h119c1.1,0,2,0.9,2,2v22c0,1.1-0.9,2-2,2h-119c-1.1,0-2-0.9-2-2v-22C-302,425.9-301.1,425-300,425
			z"/>
	</defs>
	<clipPath id="SVGID_2_">
		<use xlink:href="#SVGID_1_"  overflow="visible"/>
	</clipPath>
	<g clip-path="url(#SVGID_2_)" enable-background="new    ">
		
			<image overflow="visible" width="335" height="51" id="image12132" xlink:href="FB4913BD59DA708A.png"  inkscape:export-xdpi="90" inkscape:export-filename="/Users/tristen/dev/github/toronto/img/watchrepo.png" inkscape:export-ydpi="90" transform="matrix(1 0 0 1 -308 412)">
		</image>
	</g>
</g>
<path id="path4134" sodipodi:nodetypes="ccccccccccccccc" inkscape:connector-curvature="0" inkscape:export-xdpi="90" inkscape:export-filename="/Users/tristen/dev/github/toronto/img/logo.png" inkscape:export-ydpi="90" fill="#2BABE2" d="
	M483,471l40-20l30,15l30-25l30,25l30-20l40,25l-5-90l-35-30l-30,30l-30-30l-30,30l-30-30l-35,30L483,471z"/>
<path id="path4136" sodipodi:nodetypes="ccccc" inkscape:connector-curvature="0" inkscape:export-xdpi="90" inkscape:export-filename="/Users/tristen/dev/github/toronto/img/logo.png" inkscape:export-ydpi="90" opacity="0.1" enable-background="new    " d="
	M643,446v-95l35,30l5,90L643,446z"/>
<path id="path4138" sodipodi:nodetypes="ccccc" inkscape:connector-curvature="0" inkscape:export-xdpi="90" inkscape:export-filename="/Users/tristen/dev/github/toronto/img/logo.png" inkscape:export-ydpi="90" opacity="0.1" enable-background="new    " d="
	M583,441v-90l30,30v85L583,441z"/>
<path id="path4140" sodipodi:nodetypes="ccccc" inkscape:connector-curvature="0" inkscape:export-xdpi="90" inkscape:export-filename="/Users/tristen/dev/github/toronto/img/logo.png" inkscape:export-ydpi="90" opacity="0.1" enable-background="new    " d="
	M523,451V351l30,30v85L523,451z"/>
<path id="path4142" sodipodi:nodetypes="cccccccc" inkscape:connector-curvature="0" inkscape:export-xdpi="90" inkscape:export-filename="/Users/tristen/dev/github/toronto/img/logo.png" inkscape:export-ydpi="90" fill="#009347" d="
	M643.2,400.2c-7.1,3.5-15.5,20.1-21.5,13.1c-2.7-5-2.4-11.4-0.7-16.7c2.7-5,3.5-10.8,6.3-15.6c3.3-4.8,7.9,1.3,12.1,0.8
	c5.6-1.1,6.6,5.9,10.1,8.5c4.4,3.3,4.3,11.2-2.7,10.1C645.7,400.5,644.4,400.7,643.2,400.2L643.2,400.2z"/>
<path id="path4144" sodipodi:nodetypes="ccccc" inkscape:connector-curvature="0" inkscape:export-xdpi="90" inkscape:export-filename="/Users/tristen/dev/github/toronto/img/logo.png" inkscape:export-ydpi="90" opacity="0.2" enable-background="new    " d="
	M643,400.5l0.1-18.1c2.7,1.7,3.9,6,6.5,7.9c4.4,3.3,4.3,11.2-2.7,10.1C645.7,400.5,644.2,400.9,643,400.5L643,400.5z"/>
<path id="path4146" sodipodi:nodetypes="cccczccccc" inkscape:connector-curvature="0" inkscape:export-xdpi="90" inkscape:export-filename="/Users/tristen/dev/github/toronto/img/logo.png" inkscape:export-ydpi="90" fill="#009347" d="
	M531.9,428.5c2.1,2.1,3.4,5.5,6.7,6.1c3.3-0.4,2.6-4.5,2.5-6.8c-1.3-12.7,0.5-22.4,4.6-33.1c0.8-3.3,2.3-5.3-1.9-9.8
	c-4.2-4.5-10.8-6.4-20.6-7.9c-7.8,1.4-15.5,12.3-16.8,21.9c0,3,2.2,5.2,4.2,7c1.4,3.3,4.8,22.5,12.3,20
	C525.2,421.8,531.2,426.8,531.9,428.5L531.9,428.5z"/>
<path id="path4148" sodipodi:nodetypes="cccczccc" inkscape:connector-curvature="0" inkscape:export-xdpi="90" inkscape:export-filename="/Users/tristen/dev/github/toronto/img/logo.png" inkscape:export-ydpi="90" opacity="0.2" enable-background="new    " d="
	M531.9,428.5c2.1,2.1,3.4,5.5,6.7,6.1c3.3-0.4,2.6-4.5,2.5-6.8c-1.3-12.7,0.5-22.4,4.6-33.1c0.8-3.3,2.3-5.3-1.9-9.8
	c-4.2-4.5-10.8-6.4-20.6-7.9L523,426C525.2,421.8,531.2,426.8,531.9,428.5L531.9,428.5z"/>
<path id="path4150" sodipodi:nodetypes="zscccccsccz" inkscape:connector-curvature="0" inkscape:export-xdpi="90" inkscape:export-filename="/Users/tristen/dev/github/toronto/img/logo.png" inkscape:export-ydpi="90" fill="#009347" d="
	M575.4,428c3.2,0.2,5.6,0.3,7.6,0.5c2.4,0.2,4.3,0.5,6.9,0.6c4.1,1,7.7,4.2,12.2,3.7c5-2.1,3.8-12.2,1.6-14.3
	c-2.4-2.3-3.1-5.8-5.5-8.1c-2.3-2.4-4.9-5-5.5-8.4c-1.5-3.6-6.3-5-9.8-3.4c-0.7,0.3-6.9-3.2-7.4-2.6c-4.3,3.6-7,10.3-10,15
	C562.5,418.2,572.2,427.8,575.4,428L575.4,428z"/>
<path id="path4152" sodipodi:nodetypes="cccccccc" inkscape:connector-curvature="0" inkscape:export-xdpi="90" inkscape:export-filename="/Users/tristen/dev/github/toronto/img/logo.png" inkscape:export-ydpi="90" opacity="0.2" enable-background="new    " d="
	M583,428.5c2.4,0.2,4.3,0.5,6.9,0.6c4.1,1,7.7,4.2,12.2,3.7c5-2.1,3.8-12.2,1.6-14.3c-2.4-2.3-3.1-5.8-5.5-8.1
	c-2.3-2.4-4.9-5-5.5-8.4c-1.5-3.6-6.3-5-9.8-3.4L583,428.5z"/>
<path id="path4154" sodipodi:nodetypes="zcsscz" inkscape:connector-curvature="0" inkscape:export-xdpi="90" inkscape:export-filename="/Users/tristen/dev/github/toronto/img/logo.png" inkscape:export-ydpi="90" fill="#009347" d="
	M553,430c-3,2.5-10.2,14.5-1.2,12.9c0.4-0.2,0.7-0.2,1.2-0.4c2.7-1.6,3-5.5,5-7.5c2.3-2.3,2.2-4.4,0.9-6.2
	C557,427,556,427.5,553,430z"/>
<path id="path4156" sodipodi:nodetypes="cccc" inkscape:connector-curvature="0" inkscape:export-xdpi="90" inkscape:export-filename="/Users/tristen/dev/github/toronto/img/logo.png" inkscape:export-ydpi="90" opacity="0.2" enable-background="new    " d="
	M553,430c-3,2.5-10.2,14.5-1.2,12.9c0.4-0.2,0.7-0.2,1.2-0.4V430z"/>
<path id="path4158" sodipodi:nodetypes="czcc" inkscape:connector-curvature="0" inkscape:export-xdpi="90" inkscape:export-filename="/Users/tristen/dev/github/toronto/img/logo.png" inkscape:export-ydpi="90" fill="#007639" d="
	M677,443.5c-2.5-7.5-13.6-9.9-13.2-18.8c0.4-8.9,6.7-8.7,11.7-8.7L677,443.5z"/>
<path id="path4160" sodipodi:nodetypes="ccccccccccccccc" inkscape:connector-curvature="0" inkscape:export-xdpi="90" inkscape:export-filename="/Users/tristen/dev/github/toronto/img/logo.png" inkscape:export-ydpi="90" fill="#FCEE1E" d="
	M643,421l-0.2,0h0h0l-0.8,0.1l0,0h0h-0.1l-0.2-2.5h0l0.1,0l0.6-0.1l0,0l0.6-0.1L643,421z"/>
<path id="path4162" sodipodi:nodetypes="cccccccccccccccccccccccccccccc" inkscape:connector-curvature="0" inkscape:export-xdpi="90" inkscape:export-filename="/Users/tristen/dev/github/toronto/img/logo.png" inkscape:export-ydpi="90" opacity="0.1" enable-background="new    " d="
	M523,351l-35,30l-5,90l40-20l30,15l30-25l30,25l30-20l40,25l-5-90l-35-30l-30,30l-30-30l-30,30L523,351z M523,358.5l30,30l30-30
	l30,30l30-30l30,25l5,77.5l-35-23l-30,20.5l-30-25l-30,25l-30-15L488,461l5-77.5L523,358.5z"/>
<path id="path4164" sodipodi:nodetypes="zcczz" inkscape:connector-curvature="0" inkscape:export-xdpi="90" inkscape:export-filename="/Users/tristen/dev/github/toronto/img/logo.png" inkscape:export-ydpi="90" fill="#009347" d="
	M500.4,416.8c-0.5,3.1,1.3,5.5,3.7,4.1c0.9-2.7,0.2-5.6,1-8.3c0.1-2.7-3.9-2.3-4.8-1S500.8,413.6,500.4,416.8L500.4,416.8z"/>
<path id="path4166" inkscape:connector-curvature="0" inkscape:export-xdpi="90" inkscape:export-filename="/Users/tristen/dev/github/toronto/img/logo.png" inkscape:export-ydpi="90" fill="#FCEE1E" d="
	M670,385c-0.5,0-2,0.5-2,0.5l-1.2,1.1l1.2,1.9c0,0,1-0.5,2-0.5V385z M672,385v3h1.5l-0.5-3H672z M664.8,388.3l-0.3,0.3l0,0l0,0
	l-0.7,0.7l0,0l0,0l-0.6,0.7l0,0l0,0l-0.1,0.1l2,1.6l0-0.1l0,0l0.5-0.6l0,0l0.6-0.6l0.3-0.3L664.8,388.3L664.8,388.3z M661.4,392.4
	l-0.1,0.1l0,0l0,0l-0.5,0.8l0,0l0,0l-0.4,0.8l0,0l0,0l-0.2,0.5l2.3,1l0.2-0.4l0-0.1l0.3-0.7l0-0.1l0.4-0.7l0-0.1l0-0.1L661.4,392.4
	L661.4,392.4z M659.3,397.4l-0.1,0.6l0,0v0l-0.1,0.9l0,0v0l0,0.9l2.5,0.1l0-0.8l0.1-0.8l0-0.1l0.1-0.5L659.3,397.4L659.3,397.4z
	 M610.2,401.2l-0.5,0h0h0l-0.6,0.1l0,0h0l-0.6,0.1h-0.1l0,0l-0.5,0.1l-0.1,0l0,0l-0.2,0.1l0.9,2.3l0.1,0l0.1,0h0l0.4-0.1l0.4-0.1
	l0.1,0l0.5,0l0.5,0L610.2,401.2L610.2,401.2z M613.3,402.1c-1.1,0.2-1.7,2.5,0,2.7l0.1,0l0.6,0.4l0,0l0.7-1l0.1-0.1l0.8-1h0l0,0l0,0
	l-0.8-0.5l0,0l0,0l-0.8-0.5l0,0l0,0C613.6,402.1,613.5,402.1,613.3,402.1L613.3,402.1z M659,402.5l0,0.8l-0.1,0.8l0,0.1v0l-0.1,0.5
	l2.5,0.5l0.1-0.6l0,0v0l0.1-0.9v0l0,0l0-0.9L659,402.5L659,402.5z M604.8,403.5L604.8,403.5L604.8,403.5l-0.3,0.4l0,0l0,0l-0.2,0.4
	l0,0l0,0l-0.4,0.8l0,0l0,0l-0.3,0.7l2.3,1l0.3-0.6l0-0.1l0.3-0.6l0.1-0.1l0.1-0.2l0-0.1l0.2-0.2l0.1-0.1l-0.9-0.7l-0.1-0.1
	L604.8,403.5L604.8,403.5z M617.5,405l-1.7,1.9l0.4,0.4l0,0l0.8,0.7l0,0l0.5,0.5l1.8-1.8l-0.6-0.6h0l0,0l-0.8-0.8l0,0v0L617.5,405
	L617.5,405z M579.5,406l-4.1,2.5l4.5,3l-4.5,4.5l2.5,2.5l5-5l5,5l2.5-2.5l-4.5-4.5l4.5-3l-3.4-2l-4.1,3.5L579.5,406z M658.1,406.9
	l-0.2,0.5l-0.3,0.7l0,0.1l-0.4,0.7l0,0.1l0,0.1l2.1,1.4l0.1-0.1l0,0l0,0l0.5-0.8l0,0l0,0l0.4-0.8l0,0l0,0l0.2-0.5L658.1,406.9
	L658.1,406.9z M602.4,408.3l-0.1,0.2l0,0.1l-0.3,0.7l0,0.1l-0.2,0.3l0,0l-0.2,0.3l0,0l0,0l-0.2,0.2l2,1.5l0.2-0.3l0,0l0,0l0.2-0.4
	l0,0l0,0l0.2-0.4l0,0l0,0l0.4-0.8l0,0l0,0l0.1-0.3L602.4,408.3L602.4,408.3z M621.2,408.5l-1.8,1.8l1.1,1.1l0.7,0.7l1.7-1.8
	l-0.7-0.7L621.2,408.5z M655.7,410.8L655.7,410.8l-0.1,0.1l-0.6,0.6l0,0l-0.6,0.6l-0.3,0.3l1.7,1.8l0.3-0.3l0,0l0,0l0.7-0.7l0,0l0,0
	l0.6-0.7l0,0l0,0l0.1-0.1L655.7,410.8L655.7,410.8z M599.8,411.4L599.8,411.4l-0.8,0.4h0l-0.1,0l-0.7,0.2l-0.1,0l0,0l-0.4,0.1
	l0.6,2.4l0.5-0.1l0.1,0l0,0l0.9-0.3l0,0l0.1,0l0.9-0.4l0,0l0,0l-0.6-1.1L599.8,411.4L599.8,411.4z M624.8,411.9l-1.7,1.8l1.1,1.1
	l0,0l0,0l0.7,0.6l1.6-1.9l-0.7-0.6l0,0L624.8,411.9L624.8,411.9z M593.4,412l-0.7,2.4l0.5,0.1l0,0h0l0.6,0.1l0,0l0,0l0.6,0.1h0l0,0
	l0.7,0.1h0h0h0.1l0-2.5h0l-0.6,0l-0.1,0l-0.5-0.1l0,0h0l-0.5-0.1v0L593.4,412L593.4,412z M652.3,414l-0.6,0.5l0,0l-0.7,0.5l0,0l0,0
	l-0.5,0.3l1.3,2.1l0.6-0.4h0l0,0l0.8-0.5l0,0l0,0l0.7-0.5L652.3,414L652.3,414z M628.5,415.1l-1.5,2l0.3,0.2l0,0h0l1,0.7l0,0l0,0
	l0.8,0.5l1.3-2.1l-0.7-0.5l0,0l-0.9-0.7l0,0L628.5,415.1L628.5,415.1z M648.3,416.6l-0.5,0.2l0,0l-0.8,0.3l0,0l-0.8,0.3v0l0,0l0,0
	l0.9,2.3l0.1,0l0,0h0l0.8-0.3l0,0h0l0.8-0.4l0,0l0,0l0.5-0.2L648.3,416.6L648.3,416.6z M632.5,417.6l-1.1,2.2l0.2,0.1l0,0l0,0
	l1.1,0.5l0,0l0,0l1,0.3l0.8-2.4l-0.9-0.3l-0.1,0l-0.9-0.4l-0.1,0L632.5,417.6L632.5,417.6z M643.9,418.2L643.9,418.2
	c-0.3,0.1-0.6,0.2-0.9,0.2l0,2.5l0.6-0.1h0h0l0.8-0.2l0,0h0l-0.3-1.2l0-0.2L643.9,418.2L643.9,418.2z M636.8,418.9l-0.2,2.5l0.6,0h0
	h0l0.6,0h0h0l0.6,0h0h0l0.6,0h0h0l0.1,0l-0.3-2.5h0l-0.5,0v0l-0.5,0h0h0l-0.5,0v0L636.8,418.9L636.8,418.9z"/>
<g id="g4168" transform="matrix(0.5,0,0,0.5,557,370.18108)" inkscape:export-xdpi="90" inkscape:export-filename="/Users/tristen/dev/github/toronto/img/logo.png" inkscape:export-ydpi="90">
	
		<path id="path4170" inkscape:export-xdpi="90" inkscape:export-filename="/Users/tristen/dev/github/toronto/img/logo.png" inkscape:export-ydpi="90" sodipodi:ry="40" sodipodi:rx="32.5" sodipodi:cy="70" sodipodi:cx="967.5" sodipodi:type="arc" fill="#FFFFFF" d="
		M92-15.4C92,7,73.8,25.2,51.4,25.2C29,25.2,10.8,7,10.8-15.4S29-56.1,51.4-56.1C73.8-56.1,92-37.9,92-15.4z"/>
	
		<path id="path4172" sodipodi:nodetypes="cscsc" inkscape:connector-curvature="0" inkscape:export-xdpi="90" inkscape:export-filename="/Users/tristen/dev/github/toronto/img/logo.png" inkscape:export-ydpi="90" opacity="0.1" enable-background="new    " d="
		M93.2-11.3c0,0-7.1-35.3-42.4-35.3S8.5-11.3,8.5-11.3c0-35.3,21.2-45.9,42.4-45.9S93.2-46.6,93.2-11.3z"/>
	
		<path id="path4174" sodipodi:nodetypes="scccssssss" inkscape:connector-curvature="0" inkscape:export-xdpi="90" inkscape:export-filename="/Users/tristen/dev/github/toronto/img/logo.png" inkscape:export-ydpi="90" fill="#333333" d="
		M51-70.4c-51,0-68,51-51,85c0,0,34,51,51,68c17-17,51-68,51-68C119.5-19.4,102-70.4,51-70.4z M51.1-53.1c22,0,39.9,17,39.9,38
		c0,21-17.9,38-39.9,38c-22,0-39.9-17-39.9-38S29.1-53.1,51.1-53.1z"/>
	
		<path id="path4176" sodipodi:nodetypes="cccscccccsscccc" inkscape:connector-curvature="0" inkscape:export-xdpi="90" inkscape:export-filename="/Users/tristen/dev/github/toronto/img/logo.png" inkscape:export-ydpi="90" fill="#333333" d="
		M52.4-42.6l-2.8,2.1v16.6c-4.5,1.2-7.8,5.3-7.8,10.2c0,3.5,1.7,6.5,4.3,8.5l-13.4,12v3.5h3.5L51.9-3.1c0.2,0,0.4,0,0.6,0
		C58.3-3.1,63-7.8,63-13.7c0-4.9-3.3-9-7.8-10.2v-16.6L52.4-42.6L52.4-42.6z"/>
</g>
<path id="path4272" sodipodi:nodetypes="ccccc" inkscape:connector-curvature="0" inkscape:export-xdpi="90" inkscape:export-filename="/Users/tristen/Desktop/twitter-profile.png" inkscape:export-ydpi="90" fill="#2BABE2" d="
	M-373,195h199v200h-199V195z"/>
<g>
	<defs>
		<path id="SVGID_3_" d="M30.9-159l-11.4,4.1l-3.3,1.6l-15.5,4.9l-14.7,5.7h-1.6l-0.8,0.8l-8.2,2.5l-5.7,1.6l-0.8,0.8h-0.8l-1.6,0.8
			l-11.4,4.1l-8.2,2.5l-3.3,0.8l-1.6,0.8h-0.8l-4.9,1.6l-5.7,2.5l-13.1,4.1l-9,3.3l-4.1,1.6l-4.9,1.6l-9,3.3h-1.6l-4.1,1.6l-2.5,0.8
			l-2.5,0.8l-1.6,0.8l-11.4,4.1l-8.2,2.5l-10.6,3.3l-2.5,0.8l-4.9,1.6l-0.8,0.8l-1.6,0.8h-2.5l-2.5,0.8l-0.8,0.8l-4.9,1.6h-0.8
			l-2.5,0.8l-4.9,1.6l-2.5,0.8l-8.2,3.3l-7.4,2.5l-5.7,1.6l-6.5,2.5l-3.3,0.8l-4.9,1.6l-2.5,0.8h-0.8l-6.5,2.5l-8.2,2.5l-11.4,4.1
			l-4.9,1.6l-0.8,0.8h-0.8l-4.1,1.6l-3.3,0.8l-0.8,0.8h-0.8l-3.3,0.8l-3.3,0.8l-4.9,1.6l-3.3,0.8l-4.1,1.6l-2.5,0.8l-4.1,1.6
			l-2.5,0.8l-6.5,2.5l-4.9,0.8l-1.6,0.8l-1.6,0.8l-2.5,0.8h-1.6l-5.7,1.6l-7.4,2.5l-4.1,1.6l-2.5,0.8l-1.6,0.8l-7.4,2.5l-4.9,1.6
			l-4.1,0.8l-4.1,1.6l-4.1,0.8l-3.3,1.6h-0.8l-9,3.3h-0.8l-4.9,1.6l-11.4,4.1l-7.4,1.6v0.8h-1.6h-0.8h-0.8l-1.6,0.8l-2.5,0.8
			l-2.5,0.8l-1.6,0.8h-0.8l-2.5,0.8h-0.8l-0.8,0.8h-1.6l-0.8,0.8l-3.3,0.8h-0.8l-2.5,0.8l-1.6,0.8l-7.4,2.5l-3.3,0.8h-1.6l-0.8,0.8
			l-5.7,1.6l-6.5,2.5l-6.5,1.6l-3.3,1.6l-5.7,1.6l-4.1,1.6h-0.8l-4.1,1.6l-6.5,2.5l-4.9,1.6l-6.5,2.5l-4.1,0.8v0.8l-10.6,3.3
			l-7.4,2.5l-5.7,1.6h-1.6l-2.5,0.8v0.8h-2.5l-0.8,0.8l-4.9,0.8l-4.1,1.6l-3.3,0.8l-2.5,0.8l-2.5,0.8l-9,2.5l-4.9,1.6l-4.9,1.6
			l-4.1,1.6l-4.1,0.8l-9,2.5l-4.9,1.6l-6.5,1.6l-6.5,2.5l-3.3,0.8l-3.3,1.6l-2.5,0.8l-4.1,0.8l-4.9,1.6v0.8l-4.9,1.6l-10.6,3.3
			l-4.1,0.8l-2.5,0.8l-1.6,0.8l-2.5,0.8h-1.6l-3.3,1.6l-1.6,0.8h-1.6l-1.6,0.8l-8.2,2.5l-6.5,2.5l-2.5,0.8l-4.1,0.8l-4.9,1.6
			l-8.2,3.3l-7.4,2.5h-1.6l-3.3,0.8l-0.8,0.8h-1.6h-1.6l-2.5,0.8l-3.3,1.6l1.6,2.5l1.6,4.1l0.8,1.6l3.3,6.5v0.8h0.8h0.8l-0.8,0.8
			l0.8,0.8h0.8h0.8v0.8v0.8h0.8v0.8v0.8v0.8v0.8h0.8v1.6l0.8,0.8l0.8,0.8l0.8,0.8v0.8v0.8v0.8h-0.8l0.8,2.5l2.5,4.1l4.1,10.6h0.8
			v1.6l1.6,2.5l0.8,3.3l0.8,0.8l2.5,5.7l0.8,3.3l1.6,2.5l0.8,3.3l0.8,0.8v0.8l1.6,2.5l2.5,6.5l5.7,13.1l2.5,4.9l4.1,8.2v0.8l0.8,0.8
			v0.8l3.3,5.7v0.8l0.8,0.8l3.3,7.4v0.8l0.8,1.6l0.8,3.3l1.6,3.3l1.6,2.5l1.6,3.3v0.8v2.5l1.6,3.3l8.2,18.8l1.6,2.5l0.8,3.3l3.3,6.5
			l0.8,0.8v1.6l0.8,0.8v1.6v0.8l3.3,4.1l-1.6,1.6l-2.5,3.3l-4.9,6.5l-5.7,8.2h-0.8l-7.4,9.8l-3.3,4.9l-1.6,1.6l-3.3,4.1v0.8h0.8v0.8
			v0.8l0.8,0.8v0.8h0.8h0.8h0.8h0.8h0.8v0.8l0.8-0.8h0.8h0.8h0.8h0.8l0.8,0.8l2.5,0.8l1.6,0.8h0.8l0.8,0.8h0.8h2.5h0.8l1.6-0.8v-0.8
			l1.6-0.8v-0.8h0.8h0.8v-0.8h0.8l0.8,0.8h0.8l0.8,0.8l1.6,0.8v0.8l0.8,0.8h0.8v0.8h0.8v0.8v0.8v0.8l0.8,0.8v0.8l0.8,0.8v1.6
			l0.8,1.6l0.8,0.8v0.8l0.8,0.8l0.8,0.8v0.8l-0.8,0.8v0.8v0.8l-0.8,0.8v0.8h0.8v0.8v0.8v0.8v0.8v0.8l0.8,0.8v1.6v1.6v1.6l-0.8,1.6
			v0.8v0.8l0.8,0.8h0.8l1.6,0.8l1.6,0.8h1.6h1.6v0.8h0.8v0.8l0.8,0.8h0.8l1.6,0.8h0.8h0.8l1.6,0.8l0.8,0.8h0.8h0.8h0.8v-0.8h0.8h0.8
			l1.6-0.8v-0.8l2.5-0.8h0.8h0.8l0.8,0.8l0.8-0.8l0.8-0.8v-0.8v-0.8h0.8h0.8l1.6-0.8l1.6,0.8h0.8l0.8,0.8v0.8v0.8h0.8v1.6l-0.8,0.8
			v1.6v0.8l-0.8,0.8h-0.8h-0.8l-0.8,1.6v0.8v0.8v0.8v0.8h0.8v0.8l-0.8,0.8l-0.8,0.8h-0.8v0.8v1.6v2.5l0.8,0.8v0.8v0.8l-0.8,0.8h-0.8
			v0.8v0.8l-0.8,0.8v0.8v0.8v1.6v0.8v0.8h0.8l0.8,0.8h0.8h0.8h0.8h0.8h0.8v0.8l0.8,0.8v0.8l-0.8,0.8h-0.8v0.8l-0.8,0.8l-0.8,0.8
			h-1.6v0.8v0.8v1.6v0.8h0.8l1.6,0.8h0.8l0.8,0.8v0.8v0.8v0.8h0.8l1.6,0.8h0.8l0.8,0.8l0.8,0.8h0.8l0.8,0.8l1.6,0.8v0.8l0.8,0.8
			l0.8,0.8l0.8,0.8l0.8,0.8h0.8l0.8,0.8l0.8,0.8v0.8v0.8v0.8v0.8v0.8v0.8l0.8,1.6h0.8l0.8,0.8h0.8l0.8,0.8v0.8v0.8v0.8v0.8v1.6
			l-0.8,0.8h0.8v0.8h0.8l0.8,0.8h4.1h1.6v0.8l0.8,0.8v1.6v0.8l-0.8,0.8v0.8l-0.8,0.8v0.8v0.8v0.8v0.8v0.8h0.8h0.8l0.8,0.8l0.8,0.8
			h0.8v0.8l0.8,0.8l-0.8,1.6l-1.6,2.5l5.7,4.1l0.8,8.2l0.8,0.8l0.8-0.8v-0.8v-0.8v-0.8h0.8V447v-0.8v-0.8h0.8v-0.8h0.8v-0.8l0.8-0.8
			v-0.8l0.8-0.8v-0.8h0.8v-0.8h0.8v-0.8l0.8-0.8l0.8-0.8h0.8v-0.8h0.8v-0.8h0.8h0.8h0.8h0.8h0.8h0.8h0.8h0.8l0.8-0.8h0.8h0.8h0.8
			v-0.8l0.8,0.8h-0.8v0.8h0.8h0.8h0.8v-0.8h0.8v-0.8l0.8-0.8l0.8-0.8h0.8h0.8h0.8v-0.8h0.8h0.8h0.8h0.8h0.8v-0.8h0.8h0.8h0.8h0.8
			h0.8h0.8h0.8h0.8v-0.8h0.8h0.8h0.8h0.8h0.8h0.8v0.8v0.8h0.8v0.8h-0.8v0.8h0.8h0.8h0.8v-0.8h-0.8v-0.8v-0.8h-0.8v-0.8V429h0.8v0.8
			l0.8-0.8v0.8h0.8h0.8V429h0.8h0.8h0.8h0.8v0.8h0.8v0.8l0.8,1.6v0.8l-0.8,0.8l-0.8,0.8v0.8h-0.8h-0.8h-0.8v-0.8l-0.8,0.8h-0.8h-0.8
			l0.8,0.8l0.8,0.8h0.8h0.8h0.8l0.8-0.8h0.8h0.8h0.8h0.8h0.8v-0.8h-0.8l-0.8-0.8v-0.8v-0.8v-0.8v-0.8h0.8v-0.8h0.8l0.8-0.8V429h-0.8
			h-0.8h-0.8l-0.8-0.8v-0.8v-0.8v-0.8h0.8h0.8v-0.8v-0.8h-0.8h-0.8v-0.8v-0.8h0.8h0.8h0.8v-0.8h0.8v0.8h0.8v-0.8h0.8h0.8h0.8h0.8
			v0.8v0.8h0.8v-0.8h0.8v-0.8l0.8-0.8h0.8v0.8l0.8-0.8h0.8h0.8h0.8V420h0.8h0.8v-0.8h0.8v-0.8v-0.8v-0.8l0.8-0.8v-0.8v-0.8l0.8-0.8
			h0.8v-0.8h0.8v-0.8h0.8V411v-0.8h-0.8v-0.8v-0.8h0.8v-0.8v-0.8h0.8v-0.8h0.8v-0.8l0.8-0.8l0.8-0.8h0.8h0.8h0.8h0.8h0.8h0.8v-0.8
			V402h0.8v-0.8h0.8v-0.8l0.8-0.8v-0.8h0.8v-0.8v-0.8h0.8v-0.8h0.8v-0.8v-0.8l0.8-0.8l0.8-0.8v-0.8h0.8v-0.8v-0.8l0.8-0.8v-0.8v-0.8
			l0.8-0.8v-0.8v-0.8v-0.8V384l-0.8-0.8h0.8l-0.8-0.8v-0.8v-0.8l-0.8-0.8v-0.8v-0.8h0.8h0.8v-0.8h0.8v-0.8v-0.8V375h0.8v-0.8v-0.8
			v-0.8v-0.8h0.8V371v-0.8v-0.8h0.8v-0.8h0.8h0.8v-0.8h0.8h0.8h0.8h0.8v0.8h0.8v-0.8h0.8v0.8h0.8v0.8h0.8v0.8h0.8v0.8h-0.8v0.8h-0.8
			v0.8h-0.8v0.8v0.8h0.8l-0.8,0.8v0.8v0.8v0.8h-0.8h-0.8h-0.8h-0.8h-0.8v-0.8v-0.8h-0.8v0.8v0.8l-0.8,0.8v0.8v0.8h0.8v0.8h0.8h0.8
			V380v-0.8h0.8h0.8v-0.8h0.8l0.8,0.8v0.8h0.8v0.8v0.8h0.8h0.8v-0.8V380h-0.8v-0.8l0.8-0.8v-0.8v-0.8h0.8h0.8h0.8h0.8v-0.8h-0.8V375
			v-0.8v-0.8l0.8-0.8v-0.8l0.8-0.8v-0.8h0.8v-0.8h0.8v-0.8h-0.8h-0.8v0.8h-0.8v0.8h-0.8l-0.8-0.8h-0.8v-0.8h-0.8v-0.8v-0.8h0.8h0.8
			v0.8h0.8h0.8v-0.8V366v-0.8h-0.8h-0.8l-0.8-0.8h-0.8l-0.8-0.8l-0.8-0.8V362h-0.8h-0.8v0.8h-0.8h-0.8V362l0.8-0.8l-0.8-0.8h0.8h0.8
			h0.8h0.8h0.8v0.8h0.8h0.8l0.8-0.8v0.8h0.8v0.8v0.8v0.8l0.8,0.8h0.8h0.8v0.8v0.8h0.8v0.8h0.8l0.8-0.8h-0.8v-0.8v-0.8v-0.8v-0.8V362
			h0.8v-0.8l0.8-0.8v-0.8h0.8v-0.8h0.8h0.8h0.8h0.8h0.8h0.8h0.8v-0.8v-0.8h-0.8v-0.8v-0.8v-0.8h-0.8v-0.8V353v-0.8h-0.8v0.8h-0.8
			h-0.8v0.8l0.8,0.8h-0.8v0.8l-0.8,0.8h-0.8l-0.8-0.8v0.8l0.8,0.8h-0.8v0.8l-0.8,0.8h-0.8v-0.8h-0.8l-0.8-0.8v-0.8l-0.8,0.8h-0.8
			l-0.8,0.8v0.8h-0.8v0.8h-0.8h-0.8v-0.8l0.8-0.8v-0.8l0.8-0.8h0.8v-0.8v-0.8v-0.8h-0.8V353h0.8l0.8-0.8h-0.8v-0.8h0.8v-0.8v-0.8
			h0.8v-0.8v-0.8h-0.8h-0.8v-0.8v-0.8v-0.8h0.8l0.8-0.8h0.8V344h0.8h0.8v-0.8h0.8l0.8-0.8v0.8h0.8l0.8-0.8v-0.8v-0.8h0.8h0.8h0.8
			v-0.8v-0.8v-0.8v-0.8h0.8l0.8-0.8h0.8v-0.8l0.8-0.8v-0.8l0.8-0.8h0.8v-0.8h0.8h0.8l0.8-0.8h0.8l0.8-0.8v-0.8h0.8h0.8v-0.8h0.8h0.8
			h0.8v-0.8h0.8h0.8v-0.8h0.8h0.8v-0.8h0.8h0.8h0.8h0.8l0.8-0.8h0.8h0.8h0.8h0.8l0.8-0.8l0.8,0.8h0.8h0.8l0.8,0.8h0.8h0.8l0.8,0.8
			h0.8h0.8h0.8h0.8h0.8h0.8h0.8h0.8h0.8l0.8,0.8h0.8h0.8v0.8h0.8l0.8,0.8h0.8v0.8h0.8h0.8h0.8v-0.8l0.8,0.8h0.8h0.8l0.8,0.8v0.8h0.8
			v0.8h0.8v0.8l0.8,0.8h0.8v0.8h0.8h0.8v0.8h0.8h0.8v0.8h0.8l0.8,0.8h0.8l0.8,0.8h0.8l0.8,0.8h0.8h0.8h0.8l0.8,0.8h0.8h0.8h0.8h0.8
			v0.8h0.8h0.8h0.8h0.8h1.6h2.5h0.8l4.1-0.8h1.6l2.5,0.8h0.8h0.8v-0.8l4.1-0.8h0.8h0.8l2.5-0.8h0.8l0.8-0.8h1.6v0.8v0.8h-0.8v0.8
			h-0.8v0.8h-0.8h-0.8h-0.8v-0.8h-0.8h-0.8l-0.8,0.8h-0.8h-0.8h-0.8v0.8l-0.8,0.8v0.8h0.8h0.8l0.8,0.8h0.8V344l0.8,0.8v0.8h-0.8
			h-0.8v-0.8h-0.8V344l-0.8,0.8v0.8h0.8v0.8v0.8h0.8v-0.8h0.8h0.8v0.8h0.8l0.8-0.8h0.8h0.8h0.8h0.8v-0.8h0.8v-0.8h0.8V344v-0.8h-0.8
			l0.8-0.8h-0.8l0.8-0.8h0.8l0.8-0.8h-0.8v-0.8v-0.8v-0.8h-0.8v-0.8h0.8l0.8-0.8v-3.3l3.3,0.8l2.5-0.8h0.8l1.6-0.8h0.8l2.5-1.6
			l1.6,2.5l-1.6,2.5l-2.5,0.8v0.8h0.8l0.8,0.8l1.6-1.6l0.8-0.8l2.5-1.6l0.8-0.8l1.6-0.8v-0.8h0.8l2.5-1.6l-1.6-2.5l-0.8-1.6h1.6
			l1.6,2.5l0.8-0.8l-1.6-1.6v-0.8h0.8h1.6h0.8h0.8h1.4l-0.5-1.6h0.8h0.8v0.8h2.5l-0.8-1.6l1.6-0.8v2.5l3.3-0.8l-0.8-2.5h0.8l0.8,2.5
			h0.8v-0.8v-0.8h0.8l0.8,0.8h-0.8l-0.8,0.8h0.8l1.6-0.8l-0.8-0.8v-0.8v-0.8l0.8-0.8l0.8,1.6v1.6h2.5l4.1-0.8l-0.8-2.5v-0.8h0.8
			l1.6,2.5h0.8l-0.8-1.6l1.6-0.8l0.8,0.8l2.5-0.8v-0.8h0.8l-0.8-0.8h0.8l0.8,0.8V317h0.8l-0.8-0.8l-0.8-2.5h0.8l0.8,0.8v0.8l0.8,1.6
			l2.5-1.6l2.5-0.8l2.5-1.6l0.8-0.8l-1.6-2.5l0.8-0.8h0.8l1.6,2.5l4.1-2.5h0.8l1.6-0.8l0.8-0.8l2.5-0.8l1.6-0.8l-1.6-2.5v-1.6
			l1.6,1.6l0.8,1.6l8.2-4.9l3.3-2.5l0.8-0.8h0.8l5.7-3.3l0.8-0.8v0.8l-0.8,0.8l-3.3,2.5h-0.8v0.8l-3.3,1.6v-0.8l-4.9,3.3l0.8,0.8
			l-3.3,1.6l0.8,0.8l3.3-1.6v0.8l-5.7,4.1l2.5,4.1l3.3-2.5l2.5-1.6h0.8v0.8v0.8l-6.5,3.3l0.8,0.8l0.8,0.8l0.8,1.6l1.6,2.5l6.5-5.7
			h0.8l6.5-5.7l18-14.7l-1.6-1.6l-0.8-1.6l5.7-3.3l1.6,3.3l8.2-3.3v0.8v0.8l-4.9,2.5l-7.4,4.9l-13.1,10.6l-10.6,9h-0.8l-7.4,6.5
			l3.3,4.1l0.8,1.6h0.8l0.8,0.8l2.5,2.5l0.8,0.8h0.8v0.8h0.8v-0.8v-0.8v-0.8v-0.8h0.8l0.8-0.8h0.8v-0.8l0.8-0.8l0.8-0.8l0.8-0.8
			v-0.8l0.8-0.8l0.8-0.8l0.8-0.8h0.8v-0.8v-0.8h0.8v-0.8h0.8h0.8v-0.8h0.8h0.8h0.8h0.8h0.8h0.8h0.8l-0.8-0.8h-0.8v-0.8v-0.8h0.8
			v-0.8v-0.8h0.8v-0.8h0.8v-0.8h0.8v-0.8v-0.8h0.8v-0.8h0.8v-0.8l0.8-0.8v-0.8h0.8v-0.8h0.8v-0.8h0.8v-0.8h0.8v-0.8h0.8v-0.8
			l0.8-0.8v-0.8h0.8l0.8-0.8h0.8v-0.8V299l-1.6-2.5h0.8l0.8,1.6l0.8,0.8v0.8h0.8h0.8v0.8h0.8h0.8h0.8v0.8v0.8h0.8v0.8v0.8v0.8h-0.8
			v0.8h-0.8v0.8v0.8h-0.8h-0.8h-0.8h-0.8v0.8h0.8h0.8v0.8h0.8v0.8v0.8l-0.8,0.8v0.8v0.8v0.8h-0.8l-0.8,0.8v0.8l-0.8,0.8h-0.8
			l-0.8,0.8h0.8v0.8v0.8h-0.8h-0.8h-0.8v0.8h0.8h0.8v0.8v0.8l0.8,0.8l0.8,0.8v-0.8h0.8v-0.8v-0.8v-0.8h0.8v-0.8v-0.8h0.8V317h0.8
			v-0.8v-0.8h0.8h0.8h0.8v-0.8h-1.6l1.6-3.3l1.6-4.9v-1.6l4.1,0.8v0.8v0.8v0.8v0.8v0.8v0.8h-0.8v0.8v0.8v0.8v0.8v0.8v0.8h-0.8v0.8
			v0.8v0.8v0.8v0.8v0.8v0.8h-0.8v0.8h-0.8v0.8l-0.8,0.8v0.8h-0.8v0.8h-0.8h-0.8v0.8v0.8l0.8,0.8v0.8l0.8,0.8l-0.8,0.8v0.8h-0.8v0.8
			v0.8v0.8l-0.8,0.8h-0.8h-0.8v-0.8h-0.8h-0.8h-0.8v-0.8l0.8-0.8v-0.8h-0.8l-0.8,0.8h-0.8h-0.8v0.8h-0.8v0.8h-0.8h-0.8l-0.8,0.8
			l-0.8,0.8h-0.8h-0.8v0.8h-0.8v0.8h-0.8v0.8h-0.8v0.8h-0.8v0.8v0.8h0.8l0.8-0.8h0.8h0.8h0.8h0.8v-0.8l-0.8-0.8l0.8-0.8h0.8h0.8h0.8
			l0.8-0.8V335h0.8h0.8h0.8h0.8v0.8h0.8v0.8v0.8v0.8l-0.8,0.8v0.8v0.8h-0.8v0.8l-0.8,0.8h-0.8v0.8h-0.8v0.8v0.8h-0.8l0.8,0.8h0.8
			v0.8h0.8v-0.8v-0.8h0.8V344l0.8-0.8h0.8h0.8h0.8l-0.8-0.8v-0.8l0.8-0.8v-0.8h0.8h0.8h0.8v-0.8h-0.8h-0.8v-0.8v-0.8h0.8v-0.8v-0.8
			h0.8V335l0.8-0.8v-0.8h0.8v-0.8v-0.8h0.8v-0.8h0.8v-0.8h0.8h0.8v0.8v0.8v0.8v0.8v0.8h-0.8v0.8v0.8v0.8v0.8h-0.8l-0.8,0.8h-0.8
			h-0.8v0.8h0.8h0.8l0.8-0.8h0.8v0.8v0.8v0.8v0.8v0.8v0.8v0.8v0.8v0.8h-0.8l-0.8-0.8h-0.8h-0.8V344h-0.8h-0.8h-0.8l0.8,0.8h0.8
			l0.8,0.8h0.8h0.8v0.8h0.8l0.8,0.8v0.8v0.8v0.8v0.8v0.8v0.8v0.8h-0.8v0.8h-0.8h-0.8h-0.8h-0.8h-0.8h-0.8h-0.8h-0.8v0.8h-0.8h-0.8
			h-0.8h-0.8h-0.8h-0.8h-0.8h-0.8h-0.8v-0.8V353v-0.8v-0.8l0.8-0.8v-0.8l0.8-0.8v-0.8l0.8-0.8v-0.8h-0.8h-0.8v0.8h-0.8h-0.8h-0.8
			v0.8v0.8h-0.8v-0.8h-0.8v-0.8h-0.8v-0.8v-0.8h0.8v-0.8h0.8V344h-0.8v-0.8h-0.8h-0.8l-0.8,0.8v-0.8h-0.8v-0.8h-0.8v-0.8l-0.8,0.8
			v-0.8h-0.8v0.8v0.8v0.8h0.8v0.8v0.8l0.8,0.8l0.8,0.8v0.8h0.8v0.8v0.8v0.8l-0.8,0.8v0.8v0.8v0.8l-0.8,0.8v0.8h-0.8h-0.8v-0.8h-0.8
			v-0.8V353h-0.8l-0.8-0.8l-0.8-0.8l-0.8-0.8h0.8v-0.8h-0.8h-0.8v0.8v0.8v0.8h-0.8h-0.8v0.8h-0.8l0.8,0.8h0.8h0.8v0.8h0.8l0.8,0.8
			v0.8h0.8l0.8,0.8l0.8,0.8v0.8h-0.8v0.8v0.8h-0.8l-0.8,0.8h-0.8h-0.8h-0.8l-0.8-0.8h0.8v-0.8l-0.8-0.8v-0.8v-0.8v-0.8v-0.8h-0.8
			h-0.8l-0.8,0.8l0.8,0.8v0.8h0.8v0.8v0.8v0.8v0.8v0.8v0.8h-0.8v0.8h-0.8v0.8v0.8h0.8v0.8l0.8,1.6v0.8v0.8v0.8v0.8v1.6v0.8v0.8v0.8
			h0.8h0.8v-0.8v-0.8v-0.8l0.8-0.8V371h0.8v-0.8h-0.8v-0.8h-0.8v-0.8v-0.8v-0.8h0.8V366v-0.8l0.8-0.8v-0.8h0.8v-0.8l0.8-0.8l0.8-0.8
			h0.8h0.8h0.8v0.8h0.8l0.8-0.8v-0.8v-0.8v-0.8v-0.8l0.8-0.8h0.8h0.8h0.8v0.8l-0.8,0.8v0.8l-0.8,0.8h0.8v0.8h0.8h0.8l0.8-0.8
			l0.8-0.8h0.8l0.8-0.8h0.8l1.6,0.8h0.8h0.8h0.8h0.8v0.8h0.8h0.8l0.8,0.8h0.8l0.8-0.8h-0.8v-0.8h-0.8v-0.8h-0.8v-0.8h-0.8v-0.8v-0.8
			v-0.8h0.8h0.8h0.8h0.8h0.8h0.8h0.8v0.8v0.8v0.8v0.8v0.8v0.8v0.8v0.8h-0.8v0.8l-0.8,0.8h-0.8v0.8h-0.8v0.8h0.8l0.8-0.8h0.8h0.8h0.8
			v0.8h0.8l0.8,0.8v-0.8h0.8v-0.8h-0.8l-0.8-0.8v-0.8V362v-0.8v-0.8v-0.8v-0.8v-0.8v-0.8v-0.8v-0.8l0.8-0.8h0.8v-0.8l-0.8-0.8v-0.8
			v-0.8v-0.8v-0.8v-0.8v-0.8v-0.8h0.8v-0.8v-0.8h-0.8v-0.8V344v-0.8v-0.8v-0.8l0.8-0.8v-0.8l0.8-0.8v-0.8h-0.8v-0.8v-0.8v-0.8V335
			v-0.8v-0.8v-0.8l0.8-0.8v-0.8h0.8v-0.8l-0.8-0.8h-0.8v-0.8h-0.8v-0.8v-0.8V326v-0.8v-0.8v-0.8h0.8v-0.8v-0.8v-0.8v-0.8v-0.8
			l0.8-0.8v-0.8V317v-0.8v-0.8l0.8-0.8v-0.8v-0.8h0.8v-0.8v-0.8h-0.8v-0.8l0.8-4.1v-0.8v-0.8l0.8-0.8v-0.8h0.8v-0.8l-0.8-0.8v-0.8
			v-0.8V299v-0.8v-0.8v-0.8v-0.8v-0.8v-0.8h0.8v-0.8v-0.8v-0.8v-0.8V290h0.8v-0.8v-0.8l0.8-0.8v-0.8v-0.8v-0.8h0.8v-0.8v-0.8h0.8
			v-0.8l0.8-0.8V281h0.8l0.8-0.8h-0.8v-0.8v-0.8v-0.8h-0.8l0.8-0.8h0.8v0.8h0.8h0.8h0.8l0.8-0.8h0.8v-0.8l-0.8-0.8v-0.8h-0.8
			l-0.8-0.8h-0.8v-0.8h-0.8l-0.8-0.8l-1.6-1.6v-0.8v-0.8l1.6-0.8h0.8h0.8h0.8h0.8v0.8h0.8l-0.8,0.8h-0.8l0.8,0.8h0.8l-0.8,0.8h0.8
			l0.8,0.8v0.8h0.8v0.8l0.8,0.8v0.8h0.8v0.8v0.8h-0.8v0.8h-0.8v0.8h0.8h0.8h0.8l0.8,0.8l0.8-0.8l-1.6-0.8v-0.8v-0.8l0.8-0.8h0.8v0.8
			h0.8v-0.8h0.8v0.8h0.8h0.8v0.8h0.8h0.8v0.8v0.8h-0.8h-0.8v0.8v0.8h-0.8v0.8h-0.8l-0.8-0.8h-0.8h-0.8h-0.8v0.8v0.8h0.8v0.8l0.8-0.8
			h0.8l0.8,0.8v0.8h0.8v-0.8h0.8v-0.8V281l0.8-0.8v-0.8h0.8h0.8h0.8h0.8h0.8v-0.8v-0.8h-0.8v-0.8l-0.8-0.8v-0.8v-0.8v-0.8h0.8v-0.8
			h0.8V272v-0.8h-0.8l-0.8-0.8l-0.8,0.8v0.8h-0.8l-0.8-0.8v-0.8h-0.8v-0.8v-0.8l0.8-0.8v-0.8l0.8-0.8v-0.8l0.8-0.8h0.8v-0.8h0.8V263
			h0.8l0.8-0.8h0.8v-0.8h0.8h0.8v-0.8h0.8h0.8v-0.8h0.8h0.8h0.8v-0.8h0.8h0.8v0.8l0.8-0.8l0.8,0.8h0.8h0.8l0.8-0.8h0.8h0.8v-0.8h0.8
			h0.8v-0.8l0.8-0.8l0.8-0.8v-0.8h0.8l0.8-0.8h0.8h0.8l0.8-0.8h0.8v-0.8h0.8h0.8v-0.8h0.8h0.8l0.8-0.8h0.8h0.8v-0.8h0.8h0.8v-0.8
			h0.8h0.8h0.8v-0.8l0.8,0.8v-0.8h0.8l0.8-0.8h0.8l0.8-0.8h0.8h0.8h0.8l2.5-2.5h0.8v-0.8h0.8v-0.8v-0.8h0.8v-0.8v-0.8h0.8v-0.8
			l0.8-0.8v-0.8l0.8-0.8V236l0.8-1.6h0.8v-0.8h0.8v-0.8v-0.8h0.8v-0.8v-0.8l0.8-0.8l0.8-0.8v-0.8h0.8V227h0.8v-0.8v-0.8h0.8v-0.8
			l0.8-0.8l0.8-0.8v-0.8h0.8v-0.8h0.8v-0.8v-0.8h0.8v-0.8V218h0.8v-0.8h0.8v-0.8h0.8v-0.8l0.8-0.8l0.8-0.8v-0.8h0.8v-0.8h0.8v-0.8
			v-0.8l0.8-0.8V209h0.8h0.8v-0.8v-0.8h0.8v-0.8h0.8v-0.8l0.8-0.8v-0.8h0.8v-0.8l0.8-0.8v-0.8v-0.8h0.8V200l0.8-0.8v-0.8h0.8v-0.8
			l0.8-0.8l0.8-0.8v-0.8h0.8v-0.8h0.8v-0.8h0.8v-0.8h0.8l0.8-0.8h0.8V191h0.8v-0.8h0.8h0.8v-0.8h0.8h0.8v-0.8h0.8v-0.8h0.8v-0.8h0.8
			l0.8-0.8h0.8l0.8-0.8h0.8h0.8v-0.8l0.8-0.8v-0.8h0.8V182h0.8v-0.8h0.8l0.8-0.8v-0.8h0.8v-0.8h0.8l0.8-0.8h0.8v-0.8h0.8v-0.8h0.8
			v-0.8h0.8v-0.8h0.8h0.8h0.8v-0.8h-0.8V173h0.8h0.8h0.8h0.8v-0.8h-0.8h-0.8v-0.8h0.8h0.8v-0.8l0.8,0.8h0.8v0.8h-0.8v0.8v0.8h-0.8
			v0.8v0.8h-0.8v0.8h-0.8h-0.8v0.8v0.8h0.8h0.8v-0.8h0.8h0.8v0.8h0.8v0.8h0.8v0.8h0.8v-0.8v-0.8h-0.8v-0.8h-0.8v-0.8v-0.8v-0.8v-0.8
			l0.8-0.8v-0.8h0.8v-0.8h0.8v-0.8h0.8v-0.8h0.8V169v-0.8v-0.8h0.8v-0.8h0.8v-0.8h-0.8v-0.8V164v-0.8v-0.8v-0.8h0.8v-0.8l0.8-0.8
			l0.8-0.8l0.8-0.8l0.8,0.8h0.8v-0.8h-0.8v-0.8v-0.8l0.8-0.8V155h0.8v-0.8h0.8h0.8h0.8h0.8h0.8h0.8v0.8v0.8v0.8v0.8v0.8v0.8v0.8
			l-0.8,0.8v0.8v0.8h-0.8v0.8h-0.8v0.8h0.8h0.8h0.8v0.8l0.8,0.8v-0.8V164v-0.8h-0.8v-0.8v-0.8l0.8-0.8V160v-0.8l0.8-0.8h0.8v-0.8
			l-0.8-0.8v-0.8h-0.8V155h0.8v-0.8h-0.8v-0.8h-0.8v-0.8v-0.8V151v-0.8l0.8-0.8v-0.8v-0.8l0.8-0.8v-0.8l0.8-0.8v-0.8l0.8-0.8v-0.8
			l0.8-0.8v-0.8l0.8-0.8v-0.8h0.8v-0.8h0.8v-0.8h0.8v-0.8h0.8v-0.8h0.8v-0.8h0.8v-0.8h0.8v-0.8h0.8V133h0.8v-0.8l0.8-0.8v-0.8h0.8
			v-0.8v-0.8h0.8v-0.8l0.8-0.8v-0.8h0.8v-0.8l0.8-0.8V124h0.8v-0.8h0.8l0.8-0.8v-0.8v-0.8h0.8v-0.8v-0.8v-0.8h0.8v-0.8h0.8v-0.8
			l0.8-0.8V115v-0.8h0.8v-0.8l0.8-0.8l0.8-0.8v-0.8h0.8v-0.8v-0.8h0.8v-0.8h0.8v-0.8h0.8v-0.8V106h0.8l0.8-0.8l0.8-0.8h0.8v-0.8h0.8
			v0.8h0.8h0.8v-0.8h0.8h0.8l0.8-0.8h0.8v-0.8h0.8v-0.8h0.8v-0.8h0.8v-0.8h0.8v-0.8l0.8-0.8h0.8V97l0.8-0.8l0.8-0.8l0.8-0.8v-0.8
			l0.8-0.8v-0.8h0.8v-0.8v-0.8h0.8h0.8v-0.8v-0.8l0.8-0.8v-0.8H-1h0.8v-0.8h0.8v-0.8h0.8v-0.8h0.8v-0.8H3v-0.8l0.8-0.8v-0.8h0.8
			v-0.8h0.8v-0.8L6.3,79l0.8-0.8H8v-0.8h0.8v-0.8h0.8h0.8l0.8-0.8l0.8-0.8l0.8-0.8h0.8v-0.8h0.8v-0.8h0.8l0.8-0.8v-0.8H17V70h0.8
			v-0.8h0.8v-0.8h0.8l0.8-0.8H21v-0.8h0.8v-0.8h0.8l0.8-0.8h0.8v-0.8h0.8l0.8-0.8l0.8-0.8h0.8v-0.8h0.8h0.8V61H30h0.8v-0.8h0.8h0.8
			v-0.8h0.8h0.8v-0.8h0.8h0.8v-0.8h0.8l0.8-0.8h0.8H39v-0.8h0.8l0.8-0.8h1.6h0.8v-0.8h0.8h0.8h0.8v-0.8h0.8h0.8H48l0.8-0.8h0.8h0.8
			V52h0.8h0.8v-0.8h0.8h0.8h0.8h0.8h0.8v-0.8H57h0.8h0.8h0.8h0.8h0.8h0.8h0.8l0.8-0.8l0.8-0.8l0.8-0.8v-0.8H66v-0.8h0.8v-0.8v-0.8
			l0.8-0.8V43h0.8v-0.8l0.8-0.8v-0.8h0.8v-0.8v-0.8h0.8v-0.8h0.8v-0.8h0.8v-0.8v-0.8h0.8l0.8-0.8L75,34l0.8-0.8l0.8-0.8h0.8v-0.8
			h0.8v-0.8h0.8v-0.8v-0.8h0.8v-0.8h0.8v-0.8l0.8-0.8l0.8-0.8l0.8-0.8H84v-0.8l0.8-0.8l0.8-0.8v-0.8h0.8v-0.8h0.8v-0.8h0.8v-0.8
			v-0.8h0.8v-0.8h0.8v-0.8V16h0.8v-0.8l0.8-0.8l0.8-0.8l0.8-0.8l0.8-0.8v-0.8h0.8v-0.8l0.8-0.8V8.7h0.8V7.8L97.1,7l0.8-0.8V5.4
			l0.8-0.8l0.8-0.8V2.9h0.8V2.1h0.8V1.3V0.5h0.8v-0.8h0.8v-0.8h0.8V-2v-0.8v-0.8h0.8v-0.8v-0.8h0.8v-0.8l0.8-0.8v-0.8h0.8v-0.8v-0.8
			h0.8v-0.8V-11h0.8v-0.8l0.8-0.8v-0.8v-0.8h0.8v-0.8l0.8-0.8v-0.8l0.8-0.8v-0.8l0.8-0.8V-20l0.8-0.8v-0.8l0.8-0.8l0.8-0.8v-0.8h0.8
			v-0.8h0.8v-0.8h0.8v-0.8h0.8v-0.8h0.8l0.8-0.8h0.8V-29H120h-0.8l-0.8,0.8h-0.8h-0.8h-0.8V-29h-0.8h-0.8h-0.8h-0.8h-0.8v-0.8v-0.8
			h0.8h0.8v-0.8l-0.8-0.8v-0.8h-0.8v-0.8l-0.8-0.8h-0.8h-0.8h-0.8l-0.8,0.8v-0.8h-0.8v-0.8v-0.8v-0.8V-38l-0.8-0.8v-0.8l-0.8-0.8
			h-0.8h-0.8h-0.8H102h-0.8l-0.8-0.8h-0.8V-42h-0.8l-0.8-0.8l-0.8-0.8h-0.8h-0.8h-0.8h-0.8v0.8H93h-0.8v0.8h-0.8h-0.8l-0.8,0.8h-0.8
			V-42v-0.8h0.8v-0.8l0.8-0.8l0.8-0.8v-0.8V-47v-0.8l-0.8-0.8v-0.8v-0.8V-51v-0.8v-0.8l0.8-0.8v-0.8h-0.8v-0.8h-0.8V-56h-0.8v-0.8
			l-0.8-0.8h-0.8h-0.8v0.8h-0.8h-0.8v0.8H84v-0.8h-0.8v-0.8h-0.8l-0.8-0.8l-0.8,0.8l-0.8-0.8v-0.8h-0.8V-60h-0.8v-0.8L77.5-60h-0.8
			l-0.8-0.8h0.8v-0.8v-0.8l-0.8-0.8v0.8v0.8H75h-0.8h-0.8h-0.8h-0.8h-0.8v-0.8h0.8v-0.8l-0.8-0.8l-0.8-0.8h-0.8v-0.8h-0.8v-0.8h-0.8
			h-0.8H66v-0.8h-0.8l-0.8-0.8V-69h-0.8v-0.8h-0.8l-0.8-0.8v-0.8l-1.6-4.1l-4.9-13.1v-0.8v-0.8l-0.8-1.6l-5.7-15.5l-1.6-6.5
			l-7.4-20.4v-0.8l-2.5-5.7l-0.8-1.6l-0.8-2.5l-2.5-8.2L30.9-159L30.9-159z M-56.6,159.1v0.8h-0.8v0.8h-0.8l-0.8,0.8v0.8v0.8h0.8
			v-0.8h0.8v0.8h0.8h0.8v0.8h0.8v-0.8v-0.8h-0.8v-0.8v-0.8h0.8h0.8v0.8h0.8v-0.8V160v-0.8v-0.8v-0.8h0.8l0.8-0.8h-0.8v-0.8h-0.8
			h-0.8H-55v0.8v0.8v0.8v0.8h-0.8H-56.6z M-60.7,166.5v0.8v0.8v0.8v0.8h-0.8v0.8h0.8h0.8v0.8h0.8v-0.8h0.8v-0.8l0.8,0.8h0.8h0.8v0.8
			h0.8h0.8v-0.8H-55v-0.8V169h0.8v-0.8v-0.8v-0.8l-0.8,0.8v0.8h-0.8v0.8h-0.8v-0.8h-0.8h-0.8v-0.8h-0.8l-0.8-0.8H-60.7z
			 M-54.2,166.5h0.8h0.8v-0.8h-0.8h-0.8V166.5z M-178.5,283.4v0.8h0.8v-0.8H-178.5z M-234.1,356.2h-0.8v0.8h0.8V356.2z
			 M-225.1,341.5v-0.8h0.8h0.8h0.8l-0.8-0.8h-0.8h-0.8h-0.8v0.8v0.8H-225.1z M-223.5,340.7l-0.8,0.8h0.8V340.7z M-204.7,315.3v0.8
			h0.8l0.8-0.8h-0.8H-204.7z M-221.8,317.8h0.8l0.8-0.8l0.8-0.8h-0.8l-0.8,0.8L-221.8,317.8z M-309.6,325.2l0.3,0.8v-0.8H-309.6z
			 M-438.6,355.4l-0.8-0.8v0.8H-438.6z M-503.2,435.6v-0.8h-0.8h-0.8v0.8h0.8H-503.2z M-503.2,429.8h-0.8v0.8h0.8V429.8z
			 M-250.5,326.8v0.8h0.8L-250.5,326.8z M-249.6,327.6l1.6,2.5h-0.8h-0.8v0.8h-0.8v0.8h-0.8h-0.8v-0.8h-0.8l-0.8,0.8l-0.8,1.6v0.8
			v0.8l-0.8,0.8l0.8,0.8v0.8l1.6,1.6v0.8v0.8l-0.8,0.8v0.8v0.8h-0.8v0.8l-0.8,0.8l-0.8,1.6l-0.8,0.8l-0.8,0.8v0.8h-0.8v0.8h-0.8
			l-0.8,0.8l-2.5,1.6v-0.8h-0.8v-0.8v-0.8h-0.8h-0.8h-0.8l-0.8,0.8h-0.8v0.8v0.8v0.8h-0.8v0.8h-0.8V353l-1.6-0.8h-0.8l0.8,0.8
			l0.4,0.8h-0.4V353h-0.8v-0.8h-0.8h-0.8l-1.6-0.8h-0.8l-0.8,0.8v0.8v0.8h0.8h0.8h0.8h0.8h0.8h0.8v0.8h0.8h0.8h0.8v0.8l0.8,1.6h0.8
			h0.8v-0.8h0.8v-0.8l0.8-0.8v-0.8h-0.8l-0.8,0.8h-0.8l0.8-0.8h0.8l-0.8-0.8h0.8l0.8,0.8h0.8l0.8-0.8h0.8l-1.6,0.8l-0.8,0.8v1.6
			l-1.6,0.8l-0.8,0.8h-0.8h-0.8h-0.8h-0.8v0.8h-0.8h-0.8h-0.8h-0.8h-0.8v0.8h-0.8l0.8,0.8v0.8h0.8v0.8v0.8h-0.8h-0.8v0.8h-0.8h-0.8
			h-0.8h-0.8l-0.8-0.8l-0.8,0.8l-0.8,0.8h-0.8h-0.8h-0.8h-0.8l-0.8,0.8v0.8v0.8v0.8h-0.8v0.8h-0.8l-0.8,0.8h-0.8h-0.8h-0.8v-0.8
			h-0.8v-0.8h0.8v0.8h0.8h0.8v-0.8v-0.8h-0.8v-0.8v-0.8h-0.8v-0.8v-0.8h-0.8l-0.8-0.8h-0.8V362h-0.8h-0.8h-0.8h-0.8v0.8v0.8v0.8
			h-0.8h-0.8v-0.8h-0.8l-0.8-0.8h-0.8V362v-0.8v-0.8h-0.8h-0.8l-0.8-0.8h-0.8h-0.8h-0.8v0.8v0.8v0.8h0.8v0.8l-0.8,0.8v0.8v0.8
			l0.8,0.8v0.8v0.8h0.8l0.8,0.8h0.8h0.8h0.8v0.8h0.8h0.8h0.8h0.8v0.8h0.8v0.8h-0.8v0.8h-0.8v0.8h0.8v0.8h0.8l0.8,1.6v0.8h-0.8V375
			l-0.8-0.8h-0.8h-0.8h-0.8h-0.8h-0.8v0.8v0.8h-0.8h-0.8V375l-0.8-0.8h-0.8h-0.8v-0.8v-0.8h0.8h0.8v-0.8h0.8h0.8v0.8h0.8v-0.8V371
			l-0.8-0.8l-2.5-0.8h-0.8l-1.6-4.1l0.8-1.6V362v-2.5l-0.8-1.6v-0.8l0.8-0.8v-0.8v-0.8v-0.8V353h0.8v-0.8h0.8v-0.8v-0.8h-0.8v-0.8
			v-0.8l-0.8-1.6l0.8-0.8v-0.8l0.8-0.8V344h-0.8l-0.8-4.1l0.8-0.8l2.5-0.8v-1.6l-0.8-0.8h-0.8h-0.8h-0.8h-0.8v0.8h-0.8h-0.8
			l-0.8,0.8h-0.8l-0.8-1.6h-0.8l-1.6-2.5l-0.8-1.6l-2.5,2.5h-0.8l-1.6,1.6l-5.7,4.1l-1.6,1.6h-0.8v0.8h-0.8v0.8h-0.8v0.8h-0.8v0.8
			v0.8l0.8,2.5h0.8v-0.8h0.8h0.8h0.8h0.8h0.8l0.8,0.8h0.8v0.8h0.8v0.8l-0.8-0.8v0.8l1.6,0.8l0.8,1.6l0.8,0.8l0.8,0.8v0.8l0.8,0.8
			l0.8,0.8l0.8,0.8v0.8h0.8v0.8l0.8,0.8l0.8,0.8l0.8,0.8v0.8l0.8,0.8l0.8,1.6v0.8l0.8,0.8v0.8l0.8,0.8v1.6l0.8,0.8v0.8v1.6v0.8h-0.8
			v0.8v0.8l0.8,0.8v0.8l0.8,0.8h0.8v0.8h0.8l0.8,0.8h0.8h0.8l0.8,0.8h0.8h0.8l0.8-0.8h0.8h0.8h0.8h0.8v-0.8h0.8h0.8h0.8h0.8l0.8-0.8
			h0.8l0.8-0.8h0.8l0.8-0.8l0.8-0.8h0.8l2.5-1.6h0.8h0.8v0.8l2.5-1.6l-1.6,0.5v-0.5h0.8v-0.8h0.8v0.8l0.8-0.8V371h0.8v-0.8h0.8h0.8
			l0.8-0.8l0.8-0.8v-0.8h0.8v-0.8h0.8v-0.8h0.8l0.8-0.8h0.8v-0.8l0.8-0.8h0.8l0.8-0.8h0.8h0.8V362h0.8v-0.8l0.8-0.8h0.8v-0.8h0.8
			v-0.8h0.8v-0.8h0.8v-0.8h0.8v-0.8h0.8v-0.8h0.8v-0.8l0.8-0.8l0.8-0.8l1.6-1.6l0.8-1.6l0.8-0.8l1.6-1.6l1.6-1.6l0.8-1.6l0.8-1.6
			h0.8l-0.8-0.8l0.8-0.8v-0.8l0.8-0.8h0.8h0.8h0.8h0.8h0.8h0.8h0.8h0.8v0.8v0.8h0.8v-0.8v-0.8v-0.8v-0.8v-0.8l-4.1-4.9l-2.5-3.3
			L-249.6,327.6L-249.6,327.6z M-276.6,368.5v0.8l0.8-0.8H-276.6z M-278.3,370.1l-1.6,0.8v0.8l0.8-0.8L-278.3,370.1z M-303.6,335.8
			V335l-1.6-0.8L-303.6,335.8z M-299.5,362.8h0.8h0.8l0.8-0.8h-0.8v-0.8h-0.8h-0.8v0.8V362.8z M-289.7,365.2h0.8v0.8l0.8,0.8v0.8
			h0.8v-0.8h0.8v-0.8v-0.8v-0.8h-0.8h-0.8v-0.8h-0.8h-0.8v0.8V365.2z M-279.9,362.8h0.8h0.8h0.8h0.8h0.8l0.8-0.8v-0.8h-0.8v-0.8
			h-0.8v-0.8v-0.8h-0.8h-0.8h-0.8h-0.8h-0.8h-0.8h-0.8l-1.6-0.8h-0.8l-0.8-0.8h-0.8l-0.8-0.8v-0.8l-0.8,0.8v-0.8v-0.8l0.8-0.8
			l-0.8-0.8h-0.8v-0.8h-0.8h-0.8h-0.8v0.8h-0.8h-0.8h-2.5v-0.8v-0.8h0.8l-0.8-0.8l0.8-0.8h0.8h0.8v0.8v0.8h0.8v-0.8v-0.8v-0.8h-0.8
			h-0.8h-0.8h-0.8h-0.8v0.8l-0.8,0.8v0.8l0.8,0.8v0.8l0.8,1.6v-0.8h0.8h0.8v0.8h0.8v0.8h0.8v1.6v0.8v0.8h-0.8h-0.8v0.8h0.8h0.8v0.8
			h0.8h0.8l0.8,0.8h1.6h0.8l0.8,0.8h0.8h0.8h0.8l0.8,0.8h0.8h0.8h0.8l-0.8-0.8v-0.8h0.8h0.8h0.8h0.8h0.8v0.8h-0.8h-0.8h-0.8h-0.8
			v0.8H-279.9z M-293.8,358.7l-0.8-0.8v0.8H-293.8z M-293,355.4h-0.8h-0.8v0.8v0.8h0.8v-0.8h0.8V355.4z M-285.6,357.1h0.8h0.8v0.8
			h0.8h2.5h0.8h0.8h0.8v-0.8v-0.8l0.8-0.8v-0.8l-0.8-0.8h-0.8V353h-0.8h-1.6h-0.8h-0.8v0.8h-0.8h-0.8h-0.8v0.8h-0.8v0.8v0.8h0.8
			V357.1z M-263.6,349.7h0.8l0.8,0.8h0.8v-0.8h0.8v-0.8h0.8v-0.8h0.8h0.8v-0.8h0.8v-0.8v-0.8h0.8v-0.8l0.8-0.8l0.8-1.6v-0.8v-0.8
			v-0.8l-0.8-0.8v-0.8h-0.8h-0.8v0.8h-0.8v0.8l-4.1,4.1v0.8l-0.8,0.8v0.8l-0.8,0.8v0.8v0.8L-263.6,349.7L-263.6,349.7z
			 M-354.3,342.3l-3.3,0.8v0.8v0.8v0.8v0.8h0.8h0.8h0.8h0.8v0.8v0.8h0.8v-0.8h0.8l0.8,0.4v-0.4h0.8h0.8v-0.8v-0.8h-0.8l-0.8,0.8
			h-0.8l-0.8-0.8h-0.8v-0.8h0.8v0.8h0.8v-0.8V344v-0.8v-0.8h-0.8H-354.3z M-350.2,345.6l0.8-0.8h-0.8V345.6z M-351.9,347.6v0.4h0.8
			L-351.9,347.6z M-301.2,344.8v0.8v0.8h-0.8v0.8h-0.8v0.8v0.8v0.8v0.8v0.8l0.8,0.8v0.8v0.8l0.8,0.8v0.8v0.8v0.8l0.8,0.8v0.8h0.8
			h1.6h0.8v0.8h0.8h0.8h0.8l-0.8-0.8v-0.8v-0.8h-0.8v-1.6l-0.8-1.6V353v-0.8l-0.8-0.8v-0.8v-0.8h0.8v-0.8l-0.8-0.8v-0.8l-0.8-0.8
			l-1.6-0.8v-0.8H-301.2z M-350.2,348.1l1.6,0.8h0.8l1.6-0.8h-2.5H-350.2z M-275,354.6l-0.8,0.8h-0.8v0.8l-0.8,0.8h0.8v0.8l0.8-0.8
			v0.8h0.8h0.8h0.8h0.8l1.6-0.8h1.6v-0.8l-0.8-0.8h-0.8h-0.8h-1.6h-0.8v-0.8H-275z M-299.5,370.1v0.8v0.8v0.8h0.8v-0.8V371v-0.8
			H-299.5z M-506.4,433.9v0.8h0.8v-0.8H-506.4z"/>
	</defs>
	<clipPath id="SVGID_4_">
		<use xlink:href="#SVGID_3_"  overflow="visible"/>
	</clipPath>
	
		<path id="path4274" sodipodi:nodetypes="ccccc" inkscape:connector-curvature="0" inkscape:export-xdpi="90" inkscape:export-filename="/Users/tristen/Desktop/twitter-profile.png" inkscape:export-ydpi="90" clip-path="url(#SVGID_4_)" fill="#238AB6" d="
		M-374,195h200v200h-200V195z"/>
</g>
<path id="path4298" sodipodi:nodetypes="ccccccccccccccccccccccccccccccccccccccccccccccccccccccccccccccccccccccccccccccccccccccccccccccccccccccccccccccccccccccccccccccccccccccccccccccccccccccccccccccccccccccccccccccccccccccccccccccccccccccccccccccccccccccccccccccccccccccc" inkscape:connector-curvature="0" inkscape:export-xdpi="90" inkscape:export-filename="/Users/tristen/Desktop/twitter-profile.png" inkscape:export-ydpi="90" fill="#FCEE1E" d="
	M-183,307.1c-1,0-4,1-4,1l-2.5,2.2l2.5,3.8c0,0,2-1,4-1V307.1z M-179,307.1v6h3l-1-6H-179z M-193.5,313.7l-0.7,0.7l0,0l0,0.1
	l-1.3,1.3l0,0.1l0,0l-1.2,1.4l-0.1,0.1l0,0l-0.2,0.2l3.9,3.1l0.1-0.1l0.1-0.1l1.1-1.2l0.1-0.1l1.2-1.3l0.6-0.6L-193.5,313.7
	L-193.5,313.7z M-200.2,321.8l-0.2,0.3l-0.1,0.1l0,0.1l-0.9,1.6l0,0.1l0,0.1l-0.8,1.6l0,0.1l0,0.1l-0.4,0.9l4.6,1.9l0.3-0.8l0.1-0.2
	l0.7-1.4l0.1-0.1l0.8-1.3l0.1-0.1l0.1-0.2L-200.2,321.8L-200.2,321.8z M-204.3,331.9l-0.2,1.3l0,0.1v0.1l-0.2,1.8l0,0.1v0.1
	l-0.1,1.8l5,0.2l0.1-1.7l0.2-1.7l0-0.2l0.2-1.1L-204.3,331.9L-204.3,331.9z M-205,342l0,1.7l-0.2,1.6l0,0.1v0.1l-0.2,1.1l4.9,0.9
	l0.2-1.3l0-0.1V346l0.2-1.8v-0.1l0-0.1l0-1.8L-205,342L-205,342z M-284,349.1l-8.3,5l9,6l-9,9l5,5l10-10l10,10l5-5l-9-9l9-6l-6.7-4
	l-8.3,7L-284,349.1z M-206.7,350.9l-0.4,0.9l-0.7,1.4l-0.1,0.1l-0.8,1.3l-0.1,0.1l-0.1,0.2l4.2,2.7l0.2-0.3l0-0.1l0-0.1l0.9-1.6
	l0-0.1l0.1-0.1l0.8-1.6l0-0.1l0-0.1l0.4-0.9L-206.7,350.9L-206.7,350.9z M-211.6,358.8l-0.1,0.1l-0.1,0.1l-1.1,1.2l-0.1,0.1
	l-1.2,1.3l-0.6,0.6l3.4,3.7l0.7-0.7l0,0l0,0l1.3-1.4l0.1,0l0-0.1l1.2-1.4l0-0.1l0,0l0.2-0.2L-211.6,358.8L-211.6,358.8z
	 M-218.3,365.2l-1.3,1l-0.1,0.1l-1.4,1l-0.1,0l0,0l-1.1,0.7l2.7,4.2l1.2-0.8h0l0.1,0l1.6-1.1l0,0l0.1,0l1.4-1L-218.3,365.2
	L-218.3,365.2z M-226.4,370.2l-0.9,0.5l-0.1,0l-1.5,0.7l-0.1,0l-1.5,0.6v0l-0.1,0.1l-0.1,0l1.7,4.7l0.2-0.1l0,0h0.1l1.7-0.7l0,0h0.1
	l1.7-0.8l0,0l0.1,0l1-0.5L-226.4,370.2L-226.4,370.2z M-257.9,372.3l-2.2,4.5l0.5,0.2l0.1,0l0.1,0l2.2,0.9l0.1,0l0.1,0l2,0.7
	l1.6-4.7l-1.8-0.6l-0.2-0.1l-1.9-0.8l-0.2-0.1L-257.9,372.3L-257.9,372.3z M-235.2,373.6L-235.2,373.6c-0.6,0.1-1.3,0.4-1.8,0.5l0,5
	l1.2-0.2h0h0.1l1.6-0.4l0.1,0h0.1l-0.7-2.4l-0.1-0.3L-235.2,373.6L-235.2,373.6z M-249.3,374.8l-0.4,5l1.2,0.1h0.1h0.1l1.2,0.1h0.1
	h0.1l1.2,0h0.1h0.1l1.2-0.1h0.1h0.1l0.2,0l-0.6-5h-0.1l-1.1,0.1v0l-1.1,0h0h-0.1l-1.1-0.1v0L-249.3,374.8L-249.3,374.8z"/>
<rect id="rect5179" x="211" y="678.3" fill="none" width="140" height="40"/>
<path id="rect38852" sodipodi:nodetypes="cccsccccc" inkscape:connector-curvature="0" fill="#FFFFFF" d="M313,537l4,3l-4,3
	c-2,1,0,4.3,2,3l3-2c1-1,3-2,3-4s-2-3-3-4l-3-2C313,533,311,536,313,537z"/>
<path id="path38872" sodipodi:nodetypes="cccsccccc" inkscape:connector-curvature="0" fill="#FFFFFF" d="M339,537l-4,3l4,3
	c2,1,0,4.3-2,3l-3-2c-1-1-3-2-3-4s2-3,3-4l3-2C339,533,341,536,339,537z"/>
<g id="g40169" transform="translate(210.6377,6)" inkscape:export-xdpi="90" inkscape:export-filename="/Users/tristen/Desktop/twitter-profile.png" inkscape:export-ydpi="90">
	
		<g id="g40159" transform="translate(-818,-102.00002)" inkscape:export-xdpi="90" inkscape:export-filename="/Users/tristen/dev/github/toronto/img/logo.png" inkscape:export-ydpi="90">
		
			<path id="path40161" inkscape:export-xdpi="90" inkscape:export-filename="/Users/tristen/dev/github/toronto/img/logo.png" inkscape:export-ydpi="90" sodipodi:ry="40" sodipodi:rx="32.5" sodipodi:cy="70" sodipodi:cx="967.5" sodipodi:type="arc" fill="#FFFFFF" d="
			M371,365.9c0,22.4-18.2,40.6-40.6,40.6c-22.4,0-40.6-18.2-40.6-40.6c0-22.4,18.2-40.6,40.6-40.6C352.8,325.3,371,343.5,371,365.9z
			"/>
		
			<path id="path40163" sodipodi:nodetypes="cscsc" inkscape:connector-curvature="0" inkscape:export-xdpi="90" inkscape:export-filename="/Users/tristen/dev/github/toronto/img/logo.png" inkscape:export-ydpi="90" opacity="0.1" enable-background="new    " d="
			M372.2,370.1c0,0-7.1-35.3-42.4-35.3s-42.4,35.3-42.4,35.3c0-35.3,21.2-45.9,42.4-45.9S372.2,334.7,372.2,370.1z"/>
		
			<path id="path40165" sodipodi:nodetypes="szczssssss" inkscape:connector-curvature="0" inkscape:export-xdpi="90" inkscape:export-filename="/Users/tristen/dev/github/toronto/img/logo.png" inkscape:export-ydpi="90" fill="#333333" d="
			M330,311c-51,0-66.3,54.5-51,85c15.3,30.5,39.3,48,51,58c13.3-10,35.6-27.5,51-58S381,311,330,311z M330.1,328.3
			c22,0,39.9,17,39.9,38c0,21-17.9,38-39.9,38c-22,0-39.9-17-39.9-38S308.1,328.3,330.1,328.3z"/>
		
			<path id="path40167" sodipodi:nodetypes="cccscccccsscccc" inkscape:connector-curvature="0" inkscape:export-xdpi="90" inkscape:export-filename="/Users/tristen/dev/github/toronto/img/logo.png" inkscape:export-ydpi="90" fill="#333333" d="
			M331.4,338.7l-2.8,2.1v16.6c-4.5,1.2-7.8,5.3-7.8,10.2c0,3.5,1.7,6.5,4.3,8.5l-13.4,12v3.5h3.5l15.7-13.4c0.2,0,0.4,0,0.6,0
			c5.9,0,10.6-4.7,10.6-10.6c0-4.9-3.3-9-7.8-10.2v-16.6L331.4,338.7L331.4,338.7z"/>
	</g>
</g>
<g>
	<g>
		<defs>
			<path id="SVGID_5_" d="M243.5,671h-119c-5.8,0-10.5-4.7-10.5-10.5v-119c0-5.8,4.7-10.5,10.5-10.5h119c5.8,0,10.5,4.7,10.5,10.5
				v119C254,666.3,249.3,671,243.5,671z"/>
		</defs>
		<clipPath id="SVGID_6_">
			<use xlink:href="#SVGID_5_"  overflow="visible"/>
		</clipPath>
		<g clip-path="url(#SVGID_6_)">
			<rect x="114" y="531" fill="#FFFFFF" width="140" height="140"/>
			<g>
				<path fill="#EC1C24" d="M344.9,791.1l-35.5-38.7c5-4.6,10.6-11.6,9-18.9c-0.5-2.4-1.7-4.3-2.8-5.6c-5.2,7.6-11.8,13.4-19.5,17.3
					c-8,4-17,5.8-26.2,5.2c-19.7-1.4-38.3-13.8-45.3-30.2c-7.3-17.1-3-33.4,0.2-45.4c1.5-5.8,3-11.3,3-15.7c0-2.9-0.2-6.8-1.2-9.1
					c-0.6-1.5-2-3.2-4.3-6.1c-3.1-3.9-7.2-9-10.9-16.2c-0.6,0.8-1.3,1.6-2,2.4c-4.6,5.8-9.9,12.3-17,17.3
					c-5.8,4.1-11.9,6.6-18.3,7.4c-8.2,1-16.4-0.8-23.7-5.2c-6.8-4.1-15.6-12.1-19-26.8c-1.7-7.3-1.6-14.2-1.5-19.8
					c0-0.8,0-1.8,0-2.8c-0.3-0.2-0.6-0.3-0.8-0.4c-7.2-4-19.4-10.6-28.2-25.5c-11.6-19.7-11.4-43.9-11.3-65.3
					c0.1-11.4,0.2-27.1-2.6-32.5c-2.5-4.8-5.3-6.9-11.8-11.6c-6.4-4.6-14.4-10.4-22-20.3c-8.2-10.6-14.2-24-18.4-40.8l50.9-12.8
					c2.4,9.7,5.4,16.7,9.1,21.5c2.9,3.8,6.4,6.3,11.2,9.8c8.1,5.9,19.2,13.9,27.5,29.7c9,17,8.8,37.5,8.7,57.3
					c-0.1,13.8-0.2,31,4,38.2c1.3,2.2,2.8,3.2,8.1,6.1c7.3,4,18.4,10,24.4,24c0.8,1.9,1.4,3.8,2,5.7c4.2-4.3,9-8.5,14.3-11.7
					c12.5-7.6,26.3-8.6,38.7-2.9c8.4,3.9,14.8,9.9,19,17.8c3.1,5.9,4.1,11.3,4.8,14.8c0.1,0.3,0.1,0.7,0.2,1
					c1.5,3.1,3.4,5.4,5.9,8.5c3.5,4.5,8,10,11.4,18c3.7,8.6,5.5,18.4,5.5,29.9c0,11.3-2.6,21.2-4.7,29.1c-0.6,2.4-1.5,5.6-2,8.1
					c10.5-16.3,27.5-24.7,45.9-22.6c21.7,2.5,41.2,19.6,48.6,42.4c4,12.4,4.2,25.6,0.6,38.2C364.7,767.9,356.7,780.3,344.9,791.1z"
					/>
			</g>
			<g>
				<path fill="#FAAF40" d="M341.9,787.9l-29.6-32.2c6.4-5.9,13.3-15,9.7-25.1c-1.9-5.3-5.7-8.2-7.6-8.9c-0.2,0.2-0.4,0.5-0.6,0.9
					c-9.8,16.2-25.7,24.7-43.6,23.5c-18.1-1.3-35.2-12.6-41.6-27.6c-6.7-15.7-2.8-30.6,0.4-42.5c1.6-6.1,3.1-11.8,3.1-16.8
					c0-4.8-0.5-8.4-1.6-10.8c-0.9-2-2.3-3.8-4.9-7.1c-3.6-4.5-8.4-10.6-12.5-19.6c-0.3-0.6-0.5-1.2-0.7-1.7
					c-0.8,0.8-1.6,1.7-2.5,2.8c-1.2,1.4-2.6,3.1-4,4.9c-4.5,5.5-9.5,11.8-16.1,16.5c-11.8,8.5-25.4,9.2-37.2,2
					c-6.1-3.7-14-10.8-17-24c-1.6-6.8-1.5-13.4-1.4-18.8c0-1.6,0.1-3.8,0-5.4c-0.9-0.5-2.1-1.2-3.1-1.7c-7.3-4-18.3-10-26.5-23.9
					c-11-18.6-10.8-42.2-10.7-63c0.1-12.6,0.2-28.2-3.1-34.5c-3-5.6-6.4-8.2-13.1-13.1c-12.4-9-29.4-21.2-38.8-58.6l42.4-10.7
					c2.6,10.3,5.8,17.9,9.9,23.1c3.3,4.3,7.2,7.1,12.1,10.6c8.2,5.9,18.3,13.3,26.2,28.2c8.4,16,8.3,36,8.2,55.2
					c-0.1,15.1-0.2,32.2,4.6,40.4c2,3.4,4.6,4.9,9.8,7.7c6.8,3.7,17.1,9.3,22.4,21.9c1.9,4.5,2.8,9.1,3.2,13.4
					c5.4-6.1,11.9-12.9,19.3-17.4c15.2-9.2,28.2-5.6,34.6-2.6c17.2,8,20.1,23.1,21.4,29.5c0.1,0.5,0.2,1.2,0.3,1.6
					c1.8,3.8,3.9,6.5,6.6,9.8c6.7,8.5,16,20.1,16,45.1c0,10.7-2.5,20.3-4.6,28c-1.1,4.1-2.8,10.8-2.6,13.4c1.2,0.9,3.5,2,5.2,1.9
					c0.7-0.1,1.6-0.9,2.6-2.5c9.5-15.6,25.3-23.8,42.4-21.8c20,2.3,38.1,18.2,45,39.4c3.7,11.5,3.9,23.9,0.5,35.7
					C360.7,765.9,353.2,777.6,341.9,787.9z"/>
			</g>
			<g>
				<path fill="#FFF100" d="M339,784.7l-23.7-25.8c10.2-9.4,14.2-19.8,11.1-29.2c-2.3-7.1-8-12-12.1-12.5c-0.9-0.1-2.2-0.3-4.2,3.1
					c-8.9,14.7-23.4,22.5-39.6,21.4c-7.9-0.6-15.7-3.2-22.6-7.7c-7-4.6-12.4-10.7-15.3-17.3c-6.1-14.3-2.4-28.4,0.6-39.7
					c1.7-6.4,3.3-12.4,3.3-18c0-11.3-2.3-14.2-7.4-20.6c-3.6-4.5-8.1-10.2-12-18.7c-1.4-3-2-5.9-2.5-8.3c-1.8,1.6-4.4,4.2-8,8.3
					c-1.3,1.5-2.7,3.2-4.1,5c-4.3,5.3-9.2,11.4-15.2,15.7c-10.4,7.4-22.2,8.1-32.4,1.9c-5.4-3.2-12.3-9.6-15-21.3
					c-1.5-6.2-1.4-12.3-1.3-17.7c0-2.6,0.1-6.3-0.2-8c-1-0.8-3.3-2.1-5.1-3c-6.9-3.8-17.3-9.4-24.8-22.3
					c-10.4-17.6-10.2-39.5-10.1-60.7c0.1-13.7,0.2-29.3-3.6-36.6c-3.6-6.8-7.9-9.9-14.4-14.6c-6-4.3-13.4-9.7-20.2-18.5
					c-7.4-9.6-13-21.9-16.9-37.6l33.9-8.5c2.7,10.9,6.2,19,10.7,24.7c3.7,4.8,8,7.9,13,11.5c7.8,5.6,17.5,12.7,24.9,26.7
					c7.9,15.1,7.8,34.4,7.7,53.2c-0.1,16.4-0.2,33.5,5.2,42.7c2.6,4.3,5.9,6.3,11.5,9.3c6.6,3.6,15.7,8.6,20.5,19.8
					c3.3,7.6,3.1,15.5,3.1,22.4c0,0.4,0,0.7,0,1.1c0.6-0.8,1.2-1.5,1.7-2.1c1.6-2,3.3-4.1,5-6.1c5.3-6.1,11.7-12.9,19-17.3
					c12.8-7.8,23.6-5.6,30.5-2.4c15.2,7.1,17.7,20.1,18.9,26.4c0.1,0.8,0.3,1.8,0.5,2.3c2,4.5,4.5,7.5,7.3,11.1
					c6.7,8.4,15,18.9,15,42.4c0,10.1-2.3,19-4.4,26.9c-1.8,6.9-3.5,13.5-2.3,16.8c1,1.3,4.9,4.1,9,4.1c1.2,0,3.7,0,6.5-4.7
					c4.4-7.2,10-12.6,16.8-16c6.5-3.3,13.9-4.6,21.4-3.7c18.3,2.1,34.9,16.8,41.3,36.4c3.5,10.7,3.6,22.1,0.5,33.1
					C356.8,763.9,349.6,774.9,339,784.7z"/>
			</g>
			<g>
				<path fill="#37B34A" d="M336,781.5l-17.7-19.3c11.6-10.6,15.9-22.6,12.3-33.8c-3-9.2-10.3-14.8-15.7-15.4
					c-2.3-0.3-5.4,0.1-8.4,5.2c-7.5,12.4-19.4,19.4-32.8,19.4c-0.9,0-1.8,0-2.8-0.1c-14.7-1-29.1-10.4-34.2-22.3
					c-5.5-12.9-2.2-25.6,0.8-36.8c1.8-6.6,3.4-12.9,3.4-19.1c0-12.9-3-16.6-8.3-23.3c-3.5-4.3-7.7-9.7-11.4-17.8
					c-1.4-3.2-2-6.3-2.5-8.8c-0.3-1.4-0.7-3.4-1-3.9c-0.1-0.1-0.3-0.2-0.7-0.4c-0.4,0.1-1.6,0.6-3.9,2.4c-2.5,2-5.6,5.1-9.6,9.7
					c-1.3,1.5-2.7,3.3-4.2,5.1c-4.1,5.1-8.8,10.9-14.4,14.9c-12.1,8.7-22.5,4.8-27.6,1.7c-6.7-4.1-11.1-10.3-13-18.5
					c-1.3-5.7-1.3-11.5-1.2-16.7c0-3.5,0.1-8.3-0.6-10c-0.6-1.3-3-2.8-7-4.9c-6.8-3.7-16.2-8.8-23.2-20.7
					c-9.8-16.5-9.6-37.9-9.5-58.5c0.1-14.9,0.2-30.4-4.1-38.7c-4-7.7-9-11.2-15.7-16.1c-11.9-8.6-26.8-19.4-35.4-53.6l25.5-6.4
					c6.3,25,15.1,31.4,25.3,38.7c7.8,5.7,16.7,12.1,23.6,25.2c7.4,14.1,7.3,32.9,7.2,51.1c-0.1,17-0.2,34.7,5.8,45
					c3.3,5.6,7.6,8,13.1,11c6.4,3.5,14.4,7.9,18.6,17.7c2.9,6.8,2.8,14.1,2.7,20.7c0,3.8-0.1,7.7,0.5,10.3c0.1,0.5,0.2,0.8,0.3,1.1
					c2.5-2,6.4-6.8,8.7-9.6c1.6-2,3.2-4,4.9-6c5.1-5.8,11.2-12.4,18-16.4c11.1-6.8,20.5-4.9,26.4-2.2c13.2,6.1,15.3,17.2,16.5,23.2
					c0.2,1.1,0.5,2.5,0.7,3c2.3,5.1,4.9,8.4,8,12.2c6.6,8.3,14.1,17.7,14.1,39.7c0,9.6-2.3,18.2-4.3,25.8c-2.2,8.2-4,15.2-2,19.8
					c0.7,1.7,5.7,6,11.9,6.5c4.7,0.3,8.3-1.8,11.3-6.7c7.8-12.8,20.1-19.2,33.9-17.6c16.7,1.9,31.8,15.4,37.6,33.4
					c3.2,9.9,3.3,20.4,0.4,30.5C352.8,761.9,346.1,772.3,336,781.5z"/>
			</g>
			<g>
				<path fill="#00ADEE" d="M333.1,778.2l-11.8-12.9c17.4-16,15.9-30.9,13.5-38.4c-3.6-11-12.5-17.6-19.4-18.4
					c-5.1-0.6-9.4,1.8-12.7,7.2c-3.8,6.3-8.7,10.9-14.4,13.8c-5.2,2.6-11,3.8-17,3.3c-6.3-0.4-12.9-2.7-18.5-6.3
					c-5.6-3.6-9.8-8.4-12-13.4c-4.9-11.5-1.9-23,1-34c1.7-6.6,3.6-13.5,3.6-20.2c0-14.4-3.7-19-9.3-26.1c-3.5-4.4-7.4-9.3-10.8-16.9
					c-1.2-2.7-1.8-5.4-2.2-7.8c-1-5-1.4-6.2-4.2-7.5c-2.5-1.2-6.7-0.5-18.6,13.2c-1.4,1.6-2.8,3.4-4.4,5.3
					c-4.1,5.1-8.4,10.4-13.5,14.1c-10.1,7.2-18.6,4-22.8,1.5c-12.4-7.5-12.3-21.3-12.1-31.4c0.1-4.6,0.1-9.3-1-11.8
					c-1.2-2.7-3.9-4.3-8.9-7.1c-6.4-3.5-15.1-8.3-21.5-19c-9.2-15.5-9-36.2-8.9-56.2c0.1-15.5,0.2-31.5-4.6-40.7
					c-4.5-8.6-10.3-12.8-17.1-17.7c-12-8.6-25.5-18.4-33.7-51.1l17-4.3c6.7,26.5,16.6,33.7,27,41.2c7.4,5.4,15.9,11.5,22.3,23.7
					c6.9,13.1,6.8,30.6,6.7,49c-0.1,17.6-0.3,35.9,6.4,47.2c3.9,6.6,9.2,9.5,14.8,12.6c6.1,3.3,13.1,7.1,16.7,15.5
					c2.5,5.9,2.4,12.5,2.4,18.9c-0.1,9.4,0.2,14.1,3.7,16.2c0.8,0.5,1.3,0.8,3.5-0.8c3.1-2.2,6.6-6.6,10-10.8
					c1.6-1.9,3.2-3.9,4.8-5.8c6.9-7.9,12-12.6,16.9-15.6c7.6-4.6,15.1-5.3,22.2-1.9c11.1,5.2,12.9,14.5,14,20.1c0.3,1.6,0.6,3.1,1,4
					c2.5,5.6,5.5,9.3,8.6,13.2c6.4,8.1,13.1,16.5,13.1,37c0,9-2.2,17.3-4.1,24.7c-2.4,8.9-4.4,16.7-1.8,22.7
					c1.5,3.5,8.1,8.6,15.6,9.1c6.3,0.4,11.5-2.5,15.3-8.8c6.8-11.3,17.7-16.9,29.7-15.5c7.3,0.8,14.6,4.4,20.8,9.9
					c6.1,5.5,10.7,12.6,13.2,20.5C357.7,741.1,351,761.8,333.1,778.2z"/>
			</g>
			<g>
				<path fill="#652D90" d="M330.1,775l-5.9-6.4c7.6-7,12.7-14.6,15-22.6c1.9-6.8,1.9-13.8-0.3-20.3c-3.7-11.5-13.2-20.3-23-21.4
					c-6.9-0.8-12.8,2.4-16.9,9.3c-6.4,10.5-16.1,15.9-27.4,15.1c-11.4-0.8-23-8.1-26.8-17c-4.3-10.1-1.5-20.8,1.2-31.2
					c1.8-6.9,3.7-14,3.7-21.3c0-15.9-4.5-21.6-10.2-28.8c-3.3-4.2-7.1-8.9-10.3-16c-1-2.2-1.5-4.6-1.9-6.9c-1-5.3-1.8-8.4-6.7-10.7
					c-5.8-2.7-12.3,1.1-23.8,14.3c-1.5,1.7-2.9,3.5-4.5,5.4c-3.9,4.9-8,10-12.6,13.3c-7.6,5.5-14,3.7-18,1.3
					c-10.3-6.2-10.1-18.1-10-27.6c0.1-5.2,0.1-10.2-1.3-13.6c-1.8-4.2-5.8-6.4-10.9-9.2c-6.3-3.4-14.1-7.7-19.8-17.4
					c-8.5-14.5-8.4-34.5-8.3-54c0.1-16.8,0.2-32.6-5.1-42.8c-5-9.5-11.2-14-18.4-19.2c-11.4-8.2-24.2-17.5-32.1-48.7l8.5-2.1
					c7.1,28.1,17.6,35.7,28.7,43.7c7.4,5.3,15,10.9,21,22.2c6.4,12.2,6.3,29.1,6.2,46.9c-0.1,18.2-0.3,37.1,7,49.5
					c4.5,7.7,10.6,11,16.5,14.2c5.8,3.2,11.7,6.4,14.7,13.4c2.2,5.1,2.1,11.2,2,17.1c-0.1,10.2,0.2,16.6,5.8,20c2,1.2,4.3,1.9,8.4-1
					c3.6-2.6,7.3-7.2,10.9-11.6c1.5-1.9,3.1-3.9,4.7-5.7c9.7-11.1,21.2-22.4,34-16.4c9.1,4.2,10.5,11.6,11.6,16.9
					c0.4,1.9,0.7,3.6,1.3,4.9c2.7,6.1,6,10.2,9.1,14.1c6.2,7.9,12.2,15.3,12.2,34.2c0,8.4-2,16.1-4,23.5c-2.6,9.7-4.8,18.1-1.6,25.5
					c2.2,5.2,10.2,11.1,19.3,11.8c5.6,0.4,13.4-1.2,19.3-10.9c5.9-9.8,15.2-14.7,25.4-13.5c13.1,1.5,25.6,12.8,30.3,27.4
					C353,740.8,346.8,759.8,330.1,775z"/>
			</g>
		</g>
	</g>
	<g>
		<polygon fill="#FFFFFF" points="144.4,558.3 151.9,568.7 164.6,568.4 157.1,578.7 161.3,590.7 149.1,586.7 139,594.4 139,581.7 
			128.6,574.4 140.7,570.5 		"/>
		<path fill="#652D90" d="M139,596.2c-0.3,0-0.5-0.1-0.8-0.2c-0.6-0.3-1-0.9-1-1.6l0.1-11.8l-9.7-6.8c-0.5-0.4-0.8-1-0.7-1.7
			c0.1-0.7,0.6-1.2,1.2-1.4l11.3-3.6l3.4-11.3c0.2-0.6,0.7-1.1,1.4-1.2c0.7-0.1,1.3,0.2,1.7,0.7l6.9,9.6l11.8-0.2c0,0,0,0,0,0
			c0.7,0,1.3,0.4,1.6,0.9c0.3,0.6,0.3,1.3-0.1,1.8l-7,9.5l3.9,11.2c0.2,0.6,0.1,1.3-0.4,1.8c-0.5,0.5-1.2,0.6-1.8,0.4l-11.2-3.7
			l-9.4,7.2C139.7,596.1,139.3,596.2,139,596.2z M132.5,575l7.6,5.3c0.5,0.3,0.8,0.9,0.8,1.4l0,9.2l7.3-5.6c0.5-0.3,1.1-0.4,1.6-0.3
			l8.7,2.9l-3-8.7c-0.2-0.5-0.1-1.1,0.2-1.6l5.5-7.4l-9.2,0.2c-0.6,0-1.1-0.3-1.5-0.7l-5.4-7.5l-2.7,8.8c-0.2,0.6-0.6,1-1.1,1.2
			L132.5,575z"/>
	</g>
	<g>
		<polygon fill="#FFFFFF" points="220.3,573.9 221.8,586.5 233.1,592.5 221.5,597.8 219.3,610.4 210.7,601 198,602.8 204.3,591.7 
			198.7,580.3 211.2,582.8 		"/>
		<path fill="#652D90" d="M219.3,612.2c-0.5,0-0.9-0.2-1.3-0.6l-8-8.7l-11.7,1.7c-0.7,0.1-1.3-0.2-1.7-0.7c-0.4-0.5-0.4-1.3-0.1-1.8
			l5.8-10.3l-5.2-10.6c-0.3-0.6-0.2-1.3,0.2-1.8c0.4-0.5,1.1-0.8,1.7-0.6l11.6,2.3l8.5-8.3c0.5-0.5,1.2-0.6,1.8-0.4
			c0.6,0.2,1.1,0.8,1.2,1.4l1.4,11.8l10.5,5.5c0.6,0.3,1,0.9,0.9,1.6c0,0.7-0.4,1.3-1,1.5l-10.8,4.9l-2,11.7
			c-0.1,0.7-0.6,1.2-1.2,1.4C219.7,612.1,219.5,612.2,219.3,612.2z M210.7,599.3c0.5,0,1,0.2,1.3,0.6l6.3,6.8l1.6-9.1
			c0.1-0.6,0.5-1.1,1-1.3l8.4-3.9l-8.1-4.3c-0.5-0.3-0.9-0.8-0.9-1.3l-1.1-9.2l-6.6,6.4c-0.4,0.4-1,0.6-1.6,0.5l-9-1.8l4.1,8.3
			c0.3,0.5,0.2,1.1,0,1.6l-4.5,8l9.1-1.3C210.5,599.3,210.6,599.3,210.7,599.3z"/>
	</g>
</g>
<rect x="-279" y="676.3" fill="none" width="393" height="42"/>
</svg>
